<?xml version="1.0" encoding="utf-8"?>
<!-- Generator: Adobe Illustrator 22.0.0, SVG Export Plug-In . SVG Version: 6.00 Build 0)  -->
<svg version="1.1" id="Layer_1" xmlns="http://www.w3.org/2000/svg" xmlns:xlink="http://www.w3.org/1999/xlink" x="0px" y="0px"
	 viewBox="0 0 1920 1080" style="enable-background:new 0 0 1920 1080;" xml:space="preserve">
<style type="text/css">
	.st0{fill:#BBE2F1;}
	.st1{fill:#F3B4D2;}
	.st2{opacity:0.502;fill:#F2F0ED;}
	.st3{opacity:0.2471;enable-background:new    ;}
	.st4{clip-path:url(#SVGID_2_);fill:#04ABCD;}
</style>
<path class="st0" d="M1548.3,583.9c0.4,0,0.8,0.3,1.1,0.5l5.4,3.6l-0.3-6.6c-0.1-0.8,0.4-1.8,1-2.3l5-4.1l-6.2-1.7
	c-1-0.1-1.5-0.8-1.8-1.6l-2.4-6.1l-3.6,5.4c-0.5,0.8-1.3,1.3-2.1,1.2l-6.4,0.3l4.1,5c0.5,0.7,0.8,1.7,0.5,2.5l-1.9,6.2l6.1-2.4
	C1547.3,584,1547.9,583.9,1548.3,583.9z M1554.6,590.6c-0.4,0-0.8-0.3-1.1-0.5l-5.5-3.4l-6.1,2.4c-1,0.3-2,0.2-3-0.5
	c-0.7-0.9-1-1.9-0.7-2.9l1.9-6.2l-4.3-5.1c-0.7-0.9-0.8-1.9-0.3-2.8c0.5-0.9,1.4-1.7,2.4-1.6l6.4-0.3l3.4-5.5
	c0.7-0.9,1.8-1.4,2.7-1.3c1,0.1,1.9,0.8,2.2,1.8l2.2,6l6.4,1.7c1,0.3,1.7,1,2,2c0.3,1-0.2,2-1.1,2.7l-5,4.1l0.5,6.5
	c0.1,1-0.4,2-1.3,2.5C1555.8,590.5,1555.2,590.7,1554.6,590.6z"/>
<path class="st0" d="M1542.4,410.4c0.4,0,0.8,0.3,1.1,0.5l5.4,3.6l-0.3-6.6c-0.1-0.8,0.4-1.8,1-2.3l5-4.1l-6.2-1.7
	c-1-0.1-1.5-0.8-1.8-1.6l-2.4-6.1l-3.6,5.4c-0.5,0.8-1.3,1.3-2.1,1.2l-6.4,0.3l4.1,5c0.5,0.7,0.8,1.7,0.5,2.5l-1.9,6.2l6.1-2.4
	C1541.4,410.4,1542,410.3,1542.4,410.4z M1548.7,417c-0.4,0-0.8-0.3-1.1-0.5l-5.5-3.4l-6.1,2.4c-1,0.3-2,0.2-3-0.5
	c-0.7-0.9-1-1.9-0.7-2.9l1.9-6.2l-4.3-5.1c-0.7-0.9-0.8-1.9-0.3-2.8c0.5-0.9,1.4-1.7,2.4-1.6l6.4-0.3l3.4-5.5
	c0.7-0.9,1.8-1.4,2.7-1.3c1,0.1,1.9,0.8,2.2,1.8l2.2,6l6.4,1.7c1,0.3,1.7,1,2,2c0.3,1-0.2,2-1.1,2.7l-5,4.1l0.5,6.5
	c0.1,1-0.4,2-1.3,2.5C1549.9,417,1549.3,417.1,1548.7,417z"/>
<path class="st0" d="M1697.8,520.2c0.4,0,0.8,0.3,1.1,0.5l5.4,3.6l-0.3-6.6c-0.1-0.8,0.4-1.8,1-2.3l5-4.1l-6.2-1.7
	c-1-0.1-1.5-0.8-1.8-1.6l-2.4-6.1l-3.6,5.4c-0.5,0.8-1.3,1.3-2.1,1.2l-6.4,0.3l4.1,5c0.5,0.7,0.8,1.7,0.5,2.5l-1.9,6.2l6.1-2.4
	C1696.8,520.3,1697.4,520.2,1697.8,520.2z M1704.1,526.9c-0.4,0-0.8-0.3-1.1-0.5l-5.5-3.4l-6.1,2.4c-1,0.3-2,0.2-3-0.5
	c-0.7-0.9-1-1.9-0.7-2.9l1.9-6.2l-4.3-5.1c-0.7-0.9-0.8-1.9-0.3-2.8c0.5-0.9,1.4-1.7,2.4-1.6l6.4-0.3l3.4-5.5
	c0.7-0.9,1.8-1.4,2.7-1.3c1,0.1,1.9,0.8,2.2,1.8l2.2,6l6.4,1.7c1,0.3,1.7,1,2,2c0.3,1-0.2,2-1.1,2.7l-5,4.1l0.5,6.5
	c0.1,1-0.4,2-1.3,2.5C1705.3,526.8,1704.7,526.9,1704.1,526.9z"/>
<path class="st0" d="M1511.2,534.2c0.4-0.1,0.8,0,1.3,0l6.4,1.2l-2.9-6c-0.4-0.7-0.3-1.8,0.1-2.5l3-5.7l-6.4,0.9
	c-1,0.3-1.7-0.1-2.3-0.8l-4.5-4.7l-1.2,6.4c-0.1,0.9-0.7,1.7-1.5,1.9l-5.8,2.8l5.7,3c0.7,0.4,1.4,1.2,1.5,2.1l0.7,6.4l4.7-4.5
	C1510.3,534.6,1510.8,534.3,1511.2,534.2z M1519.6,537.8c-0.4,0.1-0.8,0-1.3,0l-6.3-1l-4.7,4.5c-0.8,0.7-1.8,1-2.9,0.7
	c-1-0.5-1.7-1.4-1.8-2.4l-0.7-6.4l-5.9-3c-1-0.5-1.5-1.4-1.4-2.5c0.1-1.1,0.6-2.1,1.6-2.4l5.8-2.8l1-6.3c0.3-1.1,1.1-2,2-2.3
	s2.1,0,2.8,0.8l4.4,4.7l6.6-1c1-0.1,1.9,0.2,2.6,1.1c0.7,0.8,0.6,1.9,0.1,2.9l-3,5.7l3,5.7c0.5,0.9,0.4,2-0.2,2.8
	C1520.7,537.3,1520.2,537.7,1519.6,537.8z"/>
<path class="st0" d="M1505.3,360.6c0.4-0.1,0.8,0,1.3,0l6.4,1.2l-2.9-6c-0.4-0.7-0.3-1.8,0.1-2.5l3-5.7l-6.4,0.9
	c-1,0.3-1.7-0.1-2.3-0.8l-4.5-4.7l-1.2,6.4c-0.1,0.9-0.7,1.7-1.5,1.9l-5.8,2.8l5.7,3c0.7,0.4,1.4,1.2,1.5,2.1l0.7,6.4l4.7-4.5
	C1504.4,361.1,1505,360.7,1505.3,360.6z M1513.8,364.3c-0.4,0.1-0.8,0-1.3,0l-6.3-1l-4.7,4.5c-0.8,0.7-1.8,1-2.9,0.7
	c-1-0.5-1.7-1.4-1.8-2.4l-0.7-6.4l-5.9-3c-1-0.5-1.5-1.4-1.4-2.5c0.1-1.1,0.6-2.1,1.6-2.4l5.8-2.8l1-6.3c0.3-1.1,1.1-2,2-2.3
	s2.1,0,2.8,0.8l4.4,4.7l6.6-1c1-0.1,1.9,0.2,2.6,1.1c0.7,0.8,0.6,1.9,0.1,2.9l-3,5.7l3,5.7c0.5,0.9,0.4,2-0.2,2.8
	C1514.8,363.7,1514.3,364.1,1513.8,364.3z"/>
<path class="st1" d="M1579.4,488c0.4-0.1,0.8,0,1.3,0l6.4,1.2l-2.9-6c-0.4-0.7-0.3-1.8,0.1-2.5l3-5.7l-6.4,0.9
	c-1,0.3-1.7-0.1-2.3-0.8l-4.5-4.7l-1.2,6.4c-0.1,0.9-0.7,1.7-1.5,1.9l-5.8,2.8l5.7,3c0.7,0.4,1.4,1.2,1.5,2.1l0.7,6.4l4.7-4.5
	C1578.5,488.5,1579,488.2,1579.4,488z M1587.8,491.7c-0.4,0.1-0.8,0-1.3,0l-6.3-1l-4.7,4.5c-0.8,0.7-1.8,1-2.9,0.7
	c-1-0.5-1.7-1.4-1.8-2.4l-0.7-6.4l-5.9-3c-1-0.5-1.5-1.4-1.4-2.5c0.1-1.1,0.6-2.1,1.6-2.4l5.8-2.8l1-6.3c0.3-1.1,1.1-2,2-2.3
	s2.1,0,2.8,0.8l4.4,4.7l6.6-1c1-0.1,1.9,0.2,2.6,1.1c0.7,0.8,0.6,1.9,0.1,2.9l-3,5.7l3,5.7c0.5,0.9,0.4,2-0.2,2.8
	C1588.9,491.2,1588.4,491.5,1587.8,491.7z"/>
<path class="st1" d="M1572,642.4c0.4,0.2,0.6,0.5,0.9,0.9l4.1,5.1l1.8-6.4c0.1-0.8,0.9-1.6,1.7-1.9l6.1-2.3l-5.4-3.5
	c-0.9-0.4-1.2-1.2-1.3-2.1l-0.4-6.5l-5.1,4.1c-0.7,0.6-1.7,0.8-2.4,0.5l-6.2-1.7l2.3,6.1c0.3,0.8,0.3,1.9-0.2,2.5l-3.7,5.3l6.5-0.4
	C1571,642.1,1571.6,642.2,1572,642.4z M1575.9,650.7c-0.4-0.2-0.6-0.5-0.9-0.9l-4.1-4.9l-6.5,0.4c-1.1,0-2-0.4-2.6-1.4
	c-0.4-1.1-0.4-2.1,0.2-3l3.7-5.3l-2.5-6.1c-0.4-1.1-0.2-2,0.6-2.8s1.8-1.2,2.7-0.7l6.2,1.7l4.9-4.1c1-0.7,2.1-0.8,3-0.4
	c0.9,0.4,1.6,1.4,1.5,2.4l0.2,6.4l5.6,3.6c0.8,0.6,1.3,1.5,1.3,2.5s-0.8,1.8-1.9,2.2l-6.1,2.3l-1.5,6.3c-0.2,1-1,1.7-2,2
	C1577.1,651,1576.5,650.9,1575.9,650.7z"/>
<path class="st1" d="M1539.6,343.6c0.3,0.1,0.5,0.4,0.7,0.7l3.2,4l1.4-5c0.1-0.6,0.7-1.2,1.3-1.4l4.7-1.8l-4.2-2.7
	c-0.7-0.3-0.9-0.9-1-1.6l-0.3-5.1l-4,3.2c-0.5,0.4-1.3,0.6-1.9,0.4l-4.8-1.3l1.8,4.7c0.2,0.6,0.2,1.4-0.2,2l-2.9,4.2l5.1-0.3
	C1538.9,343.5,1539.3,343.5,1539.6,343.6z M1542.7,350.1c-0.3-0.1-0.5-0.4-0.7-0.7l-3.2-3.8l-5.1,0.3c-0.8,0-1.5-0.3-2.1-1.1
	c-0.3-0.8-0.3-1.7,0.2-2.3l2.9-4.2l-1.9-4.8c-0.3-0.8-0.1-1.6,0.5-2.2s1.4-0.9,2.1-0.6l4.8,1.3l3.8-3.2c0.7-0.5,1.6-0.6,2.3-0.3
	s1.2,1.1,1.2,1.9l0.2,5l4.4,2.8c0.6,0.5,1,1.1,1,2c0,0.8-0.6,1.4-1.4,1.7l-4.7,1.8l-1.2,4.9c-0.2,0.8-0.8,1.4-1.5,1.5
	C1543.6,350.3,1543.1,350.3,1542.7,350.1z"/>
<path class="st0" d="M1660.7,470.4c0.4-0.1,0.8,0,1.3,0l6.4,1.2l-2.9-6c-0.4-0.7-0.3-1.8,0.1-2.5l3-5.7l-6.4,0.9
	c-1,0.3-1.7-0.1-2.3-0.8l-4.5-4.7l-1.2,6.4c-0.1,0.9-0.7,1.7-1.5,1.9l-5.8,2.8l5.7,3c0.7,0.4,1.4,1.2,1.5,2.1l0.7,6.4l4.7-4.5
	C1659.8,470.9,1660.3,470.6,1660.7,470.4z M1669.1,474.1c-0.4,0.1-0.8,0-1.3,0l-6.3-1l-4.7,4.5c-0.8,0.7-1.8,1-2.9,0.7
	c-1-0.5-1.7-1.4-1.8-2.4l-0.7-6.4l-5.9-3c-1-0.5-1.5-1.4-1.4-2.5c0.1-1.1,0.6-2.1,1.6-2.4l5.8-2.8l1-6.3c0.3-1.1,1.1-2,2-2.3
	s2.1,0,2.8,0.8l4.4,4.7l6.6-1c1-0.1,1.9,0.2,2.6,1.1c0.7,0.8,0.6,1.9,0.1,2.9l-3,5.7l3,5.7c0.5,0.9,0.4,2-0.2,2.8
	C1670.2,473.6,1669.7,473.9,1669.1,474.1z"/>
<path class="st0" d="M1497,601.1c0.4,0.3,0.6,0.8,0.8,1.3l3.1,7.4l4.2-7c0.4-0.9,1.6-1.5,2.6-1.6l7.9-0.7l-5.2-6
	c-0.9-0.8-1-1.8-0.8-2.9l1.7-7.8l-7.4,3.1c-1,0.4-2.2,0.4-3-0.3l-6.8-4.1l0.7,7.9c0.1,1-0.3,2.3-1.1,2.9l-6.1,5l7.8,1.7
	C1495.9,600.5,1496.6,600.8,1497,601.1z M1498.8,612.2c-0.4-0.3-0.6-0.8-0.8-1.3l-3.2-7.2l-7.8-1.7c-1.2-0.4-2.2-1.2-2.6-2.5
	c-0.1-1.4,0.3-2.6,1.3-3.4l6.1-5l-0.9-8.1c-0.1-1.4,0.5-2.5,1.6-3.1c1.2-0.6,2.5-0.7,3.5,0l6.8,4.1l7.2-3.2c1.3-0.5,2.7-0.2,3.7,0.5
	s1.4,2.1,1,3.4l-1.9,7.6l5.4,6.1c0.8,1,1.1,2.2,0.6,3.4c-0.4,1.2-1.6,1.9-2.9,2l-7.9,0.7l-3.9,6.9c-0.6,1.1-1.8,1.7-3,1.6
	C1500.1,612.9,1499.4,612.7,1498.8,612.2z"/>
<path class="st0" d="M1491.1,427.5c0.4,0.3,0.6,0.8,0.8,1.3l3.1,7.4l4.2-7c0.4-0.9,1.6-1.5,2.6-1.6l7.9-0.7l-5.2-6
	c-0.9-0.8-1-1.8-0.8-2.9l1.7-7.8l-7.4,3.1c-1,0.4-2.2,0.4-3-0.3l-6.8-4.1l0.7,7.9c0.1,1-0.3,2.3-1.1,2.9l-6.1,5l7.8,1.7
	C1490,426.9,1490.7,427.2,1491.1,427.5z M1492.9,438.6c-0.4-0.3-0.6-0.8-0.8-1.3l-3.2-7.2l-7.8-1.7c-1.2-0.4-2.2-1.2-2.6-2.5
	c-0.1-1.4,0.3-2.6,1.3-3.4l6.1-5l-0.9-8.1c-0.1-1.4,0.5-2.5,1.6-3.1c1.2-0.6,2.5-0.7,3.5,0l6.8,4.1l7.2-3.2c1.3-0.5,2.7-0.2,3.7,0.5
	s1.4,2.1,1,3.4l-1.9,7.6l5.4,6.1c0.8,1,1.1,2.2,0.6,3.4c-0.4,1.2-1.6,1.9-2.9,2l-7.9,0.7l-3.9,6.9c-0.6,1.1-1.8,1.7-3,1.6
	C1494.2,439.4,1493.5,439.1,1492.9,438.6z"/>
<path class="st0" d="M1646.5,537.4c0.4,0.3,0.6,0.8,0.8,1.3l3.1,7.4l4.2-7c0.4-0.9,1.6-1.5,2.6-1.6l7.9-0.7l-5.2-6
	c-0.9-0.8-1-1.8-0.8-2.9l1.7-7.8l-7.4,3.1c-1,0.4-2.2,0.4-3-0.3l-6.8-4.1l0.7,7.9c0.1,1-0.3,2.3-1.1,2.9l-6.1,5l7.8,1.7
	C1645.4,536.8,1646.1,537,1646.5,537.4z M1648.3,548.5c-0.4-0.3-0.6-0.8-0.8-1.3l-3.2-7.2l-7.8-1.7c-1.2-0.4-2.2-1.2-2.6-2.5
	c-0.1-1.4,0.3-2.6,1.3-3.4l6.1-5l-0.9-8.1c-0.1-1.4,0.5-2.5,1.6-3.1c1.2-0.6,2.5-0.7,3.5,0l6.8,4.1l7.2-3.2c1.3-0.5,2.7-0.2,3.7,0.5
	s1.4,2.1,1,3.4l-1.9,7.6l5.4,6.1c0.8,1,1.1,2.2,0.6,3.4c-0.4,1.2-1.6,1.9-2.9,2l-7.9,0.7l-3.9,6.9c-0.6,1.1-1.8,1.7-3,1.6
	C1649.6,549.2,1648.9,548.9,1648.3,548.5z"/>
<path class="st2" d="M1920,1080L0,1080l0-849c22.3-0.6,45-0.9,67.2-0.9c39.7,0,80,0.9,119.8,2.7c40,1.8,80.6,4.6,120.7,8.3
	c40.3,3.7,81.2,8.4,121.4,13.9c40.5,5.6,81.6,12.2,121.9,19.6c40.7,7.5,81.8,16,122.2,25.4c40.7,9.4,81.9,19.9,122.3,31.2
	c40.7,11.4,81.8,23.9,122.1,37.2c40.6,13.4,81.6,27.9,121.7,43.2c37.8,14.4,75.8,29.8,112.8,45.7c36.7,15.8,73.6,32.6,109.5,49.9
	c35.7,17.2,71.3,35.3,106.1,54c34.5,18.5,69,37.9,102.5,57.8c33.4,19.8,66.7,40.5,98.9,61.5c32.1,20.9,64.1,42.8,95.2,65.1
	c30.9,22.1,61.6,45.1,91.4,68.4c29.6,23.1,59,47.2,87.5,71.6c25.9,22.1,51.6,45.1,76.6,68.2L1920,1080L1920,1080L1920,1080z"/>
<g class="st3">
	<g>
		<defs>
			<rect id="SVGID_1_" x="108" width="419" height="419"/>
		</defs>
		<clipPath id="SVGID_2_">
			<use xlink:href="#SVGID_1_"  style="overflow:visible;"/>
		</clipPath>
		<path class="st4" d="M450.8,179.7h-59.9h-81.5v58h80.9c-3.8,9.6-9.6,18.5-17.2,26.8c-14.7,14.7-34.4,22.9-55.4,22.9
			c-21,0-40.8-8.3-55.4-22.9S239.3,230,239.3,209c0-21,8.3-40.8,22.9-55.4c14.7-14.7,34.4-22.9,55.4-22.9c20.4,0,39.5,7.6,54.2,21.7
			l2.5,2.5h69.4l-7-12.1c-17.8-31.9-48.4-55.4-83.5-65c-37.6-10.2-77.7-3.8-114.7,17.8c-14.7,8.3-26.8,20.4-35,35
			c-35.7,59.9-29.3,128.7,15.9,175.2c26.8,27.4,61.2,40.8,97.5,40.8c25.5,0,51.6-7,76.5-21c14-7.6,26.1-19.1,35-33.1
			c11.5-17.2,18.5-35.7,22.3-53.5h25.5c-14,75.2-79.6,132.5-159.3,132.5c-86,0-157.4-67.5-161.8-153.5
			c-2.5-44.6,13.4-87.3,44.6-119.8c30.6-32.5,73.3-51,117.2-51c2.5,0,5.7,0,8.3,0C401.1,51,462.9,107,475.7,179.7L450.8,179.7
			L450.8,179.7z M511.3,128.1C489,78.4,452.7,40.8,406.2,19.1C382,7.6,355.9,1.3,328.5,0c-3.8,0-7.6,0-10.8,0
			c-29.3,0-57.3,5.7-84.1,17.8c-25.5,11.5-48.4,27.4-67.5,47.8c-19.1,20.4-34.4,44-44,70.1c-10.2,27.4-14.7,55.4-13.4,84.7
			c1.3,26.8,7.6,52.9,19.1,77.7c21.7,46.5,59.2,82.8,108.9,105.1c22.3,10.2,46.5,15.3,72.6,15.3h217.2V201.3
			C526.6,174.6,521.5,150.4,511.3,128.1z"/>
	</g>
</g>
</svg>
