<?xml version="1.0" encoding="utf-8"?>
<!-- Generator: Adobe Illustrator 22.0.1, SVG Export Plug-In . SVG Version: 6.00 Build 0)  -->
<svg version="1.1" id="Layer_1" xmlns="http://www.w3.org/2000/svg" xmlns:xlink="http://www.w3.org/1999/xlink" x="0px" y="0px"
	 viewBox="0 0 1920 996" style="enable-background:new 0 0 1920 996;" xml:space="preserve">
<style type="text/css">
	.st0{clip-path:url(#SVGID_2_);}
	.st1{fill:#FFFFFF;}
	.st2{fill:#00AACC;}
	.st3{fill:#F2F0ED;}
	.st4{fill:none;}
	.st5{font-family:'SourceSansPro-Light';}
	.st6{font-size:34px;}
	.st7{fill:#F7F7F7;}
</style>
<g>
	<g>
		<g>
			<defs>
				<rect id="SVGID_1_" y="0" width="1920" height="996"/>
			</defs>
			<clipPath id="SVGID_2_">
				<use xlink:href="#SVGID_1_"  style="overflow:visible;"/>
			</clipPath>
			<g id="Artboard_1" class="st0">
				<rect y="0" class="st1" width="1920" height="996"/>
				<path id="Subtraction_6" d="M1619.5,4065.5c-33.7-7.4-67.8-15.5-101.3-24.2c-33.7-8.7-67.8-18.2-101.2-28.2
					c-33.7-10.1-67.7-21-101.1-32.4c-33.6-11.5-67.5-23.8-100.8-36.5c-37.8-14.5-75.8-30-112.8-46.1c-36.7-16-73.6-32.9-109.5-50.4
					c-35.6-17.3-71.3-35.7-106.1-54.4c-34.5-18.7-69-38.3-102.5-58.3c-33.3-19.9-66.6-40.8-98.9-62.1
					c-32.1-21.1-64.1-43.2-95.2-65.6c-30.9-22.3-61.6-45.5-91.4-69c-29.6-23.4-59-47.7-87.5-72.2c-28.3-24.4-56.4-49.8-83.5-75.3
					c-27-25.4-53.7-51.7-79.4-78.1c-25.6-26.3-50.9-53.5-75.2-80.8c-24.2-27.2-48.1-55.3-70.9-83.4c-22.8-28-45.2-56.9-66.6-85.7
					c-21.3-28.8-42.2-58.4-62.1-87.9c-19.8-29.5-39.2-59.7-57.5-89.9c-18.3-30.1-36.1-61-52.9-91.8c-16.8-30.7-33-62.2-48.1-93.4
					c-15.2-31.3-29.8-63.2-43.3-94.9c-13.6-31.7-26.5-64.1-38.4-96.2c-11.9-32.2-23.1-65-33.3-97.4c-10.2-32.5-19.7-65.6-28.2-98.4
					c-8.5-32.9-16.3-66.2-23-99.2c-6.8-33.1-12.7-66.7-17.7-99.8c-5-33.3-9.1-67-12.3-100.3c-3.2-33.4-5.5-67.3-6.8-100.6
					c-1.3-33.5-1.8-67.4-1.2-100.7c0.5-33.5,2-67.4,4.5-100.7c2.4-33.5,5.9-67.3,10.2-100.5c4.4-33.4,9.8-67.1,16.1-100.1
					c6.4-33.2,13.8-66.7,22.1-99.5c8.4-33,17.8-66.3,28.1-98.8c10.4-32.8,21.9-65.7,34.3-97.9c9.1-23.7,18.8-47.4,28.9-70.6
					c10-23.1,20.7-46.2,31.7-68.8c11-22.4,22.5-45,34.5-66.9c11.8-21.8,24.3-43.7,37.1-65c12.7-21.2,26.1-42.4,39.7-63.1
					c13.6-20.6,27.8-41.1,42.3-61.1c14.4-19.9,29.5-39.8,44.7-59.1s31.1-38.5,47.1-57.1S64.7,666,81.5,648
					c16.7-17.9,34.1-35.8,51.7-53.1c17.5-17.2,35.6-34.4,53.8-51c18.2-16.5,37-33,55.9-48.9c18.9-15.8,38.3-31.6,57.9-46.7
					c19.5-15.1,39.7-30.1,59.9-44.6c20.1-14.4,40.9-28.7,61.7-42.4c20.8-13.7,42.1-27.2,63.5-40.2C507.1,308,529,295.3,551,283
					c21.9-12.2,44.4-24.2,66.9-35.7c22.4-11.5,45.5-22.7,68.5-33.4c23-10.7,46.5-21.2,70-31.1s47.5-19.6,71.4-28.7
					c23.9-9.1,48.4-18,72.8-26.4s49.3-16.4,74.1-24s50.1-14.8,75.3-21.6s50.9-13.2,76.4-19.1s51.6-11.5,77.5-16.7
					s52.3-9.9,78.5-14.2s52.9-8.2,79.4-11.7c26.5-3.4,53.5-6.5,80.2-9.1c26.8-2.6,54-4.8,81-6.5s54.5-3.1,81.7-3.9
					c27.3-0.9,54.9-1.3,82.3-1.3c39.7,0,80,0.9,119.8,2.8c40,1.8,80.6,4.7,120.7,8.4c40.3,3.7,81.2,8.4,121.4,14
					c40.5,5.6,81.5,12.3,121.9,19.8c40.7,7.6,81.8,16.2,122.2,25.6c40.7,9.5,81.9,20.1,122.3,31.5c40.7,11.5,81.8,24.1,122.1,37.5
					c40.6,13.5,81.6,28.2,121.7,43.6c37.9,14.5,75.8,30.1,112.8,46.1c36.7,16,73.6,32.9,109.5,50.4c35.6,17.3,71.3,35.6,106.1,54.4
					c34.5,18.6,69,38.3,102.5,58.3c33.3,19.9,66.6,40.8,98.9,62.1c32.1,21.1,64.1,43.2,95.2,65.6c30.9,22.3,61.6,45.5,91.4,69
					c29.6,23.4,59,47.7,87.5,72.2c28.3,24.4,56.4,49.7,83.5,75.3c27,25.4,53.7,51.7,79.4,78.1c25.6,26.3,50.9,53.5,75.2,80.8
					c24.2,27.2,48.1,55.2,70.9,83.4c22.8,28,45.2,56.9,66.6,85.7c21.3,28.8,42.2,58.4,62.1,87.9c19.8,29.5,39.2,59.7,57.5,89.9
					c18.3,30.1,36.1,61,52.9,91.8s33,62.2,48.1,93.4c15.2,31.3,29.8,63.2,43.3,94.9c13.6,31.7,26.5,64.1,38.4,96.2
					c11.9,32.2,23.1,65,33.3,97.4c10.2,32.5,19.7,65.6,28.2,98.4s16.3,66.2,23,99.2c6.8,33.1,12.7,66.7,17.7,99.8
					c5,33.3,9.1,67,12.3,100.3c3.2,33.4,5.5,67.3,6.8,100.6c1.3,33.5,1.8,67.4,1.2,100.7c-0.5,33.5-2,67.4-4.5,100.7
					c-2.4,33.5-5.9,67.3-10.2,100.5c-4.4,33.4-9.8,67.1-16.1,100.1c-6.4,33.2-13.8,66.7-22.1,99.5c-8.4,33-17.8,66.3-28.1,98.8
					c-10.4,32.8-21.9,65.7-34.3,97.9c-7.7,20.1-15.9,40.3-24.3,60s-17.3,39.4-26.4,58.7c-9.1,19.2-18.6,38.5-28.4,57.4
					c-9.7,18.8-19.9,37.6-30.3,56c-10.4,18.3-21.2,36.7-32.2,54.6c-11,17.9-22.4,35.8-34.1,53.2c-11.6,17.4-23.6,34.8-35.9,51.8
					c-12.2,16.9-24.8,33.9-37.7,50.4c-25.5,32.9-52.5,65.3-80.4,96.5c-27.7,30.9-57,61.4-87,90.6c-29.8,29-61.2,57.5-93.1,84.6
					c-31.8,27-65.1,53.4-99,78.5V857h-1920L1619.5,4065.5L1619.5,4065.5z"/>
				<rect id="Base" y="740.3" class="st2" width="1920" height="266.7"/>
				<path id="Path_739" class="st3" d="M1382.5,841c-1.7-4.1-4.9-7.3-8.9-9.2c-2.1-1-4.3-1.5-6.6-1.6h-0.9c-2.5,0-4.9,0.5-7.1,1.5
					s-4.1,2.3-5.7,4.1c-1.6,1.7-2.9,3.7-3.7,5.9c-0.9,2.3-1.2,4.7-1.1,7.2c0.1,2.3,0.7,4.5,1.6,6.6c1.9,4,5.2,7.2,9.2,8.9
					c1.9,0.9,4,1.3,6.2,1.3h18.4v-18.4C1383.9,845,1383.4,842.9,1382.5,841z M1377.4,845.3h-12v4.9h6.9c-0.3,0.8-0.8,1.6-1.5,2.3
					c-2.6,2.6-6.8,2.6-9.4,0s-2.6-6.8,0-9.4c2.6-2.5,6.7-2.6,9.3-0.1l0.2,0.2h5.9l-0.6-1c-1.5-2.7-4.1-4.7-7.1-5.5
					c-3.3-0.8-6.8-0.3-9.7,1.5c-1.2,0.7-2.3,1.7-3,3c-3,5.1-2.5,10.9,1.4,14.9c2.2,2.2,5.2,3.5,8.3,3.5c2.3,0,4.5-0.6,6.5-1.8
					c1.2-0.7,2.2-1.6,3-2.8c0.9-1.4,1.6-2.9,1.9-4.5h2.2c-1.4,7.5-8.5,12.4-16,11c-6.2-1.2-10.9-6.4-11.2-12.8
					c-0.2-3.8,1.2-7.5,3.8-10.2c2.6-2.7,6.2-4.3,9.9-4.3h0.7c6.3,0.3,11.6,5,12.8,11.2L1377.4,845.3L1377.4,845.3z"/>
				<g id="Group_422" transform="translate(4042.329 4024.371)">
					<path id="Path_441" class="st3" d="M-2636.1-3173.6h-12.7v0.1c0,2.3,0.9,4.9,4.6,4.9c2.9,0,5.5-0.2,7.1-0.4h0.1
						c0.3,0,0.7,0.2,0.7,0.6l0,0v2.6c0,0.6-0.1,0.9-0.8,1c-2.5,0.5-5,0.7-7.6,0.6c-3.9,0-9.4-2.1-9.4-9.8v-2.9
						c0-6.1,3.4-9.9,9.3-9.9c6,0,9.2,4.1,9.2,9.9v2.2C-2635.3-3174-2635.6-3173.6-2636.1-3173.6z M-2640.5-3177.4
						c0-3-1.7-4.8-4.1-4.8c-2.4,0-4.2,1.7-4.2,4.8v0.2h8.3V-3177.4z"/>
					<path id="Path_442" class="st3" d="M-2613.7-3164.4h-3.6c-0.4,0-0.8-0.4-0.8-0.8v-12.7c0-3.4-0.3-4.4-3.3-4.4
						c-1.5,0.1-3.1,0.6-4.4,1.4v15.6c0,0.4-0.3,0.8-0.8,0.8h-3.6c-0.4,0-0.8-0.4-0.8-0.8v-20.4c0-0.4,0.3-0.7,0.7-0.8l0,0h3.4
						c0.4,0,0.7,0.3,0.8,0.7l0,0v0.8c1.8-1.3,4.1-2,6.3-1.9c5.6,0,6.8,3.8,6.8,8.7v12.7C-2612.9-3164.9-2613.3-3164.5-2613.7-3164.4
						z"/>
					<path id="Path_443" class="st3" d="M-2597.2-3164.4c-0.9,0.2-1.8,0.3-2.6,0.3c-4.4,0-6.2-1-6.2-6.2v-12.2l-3.7-0.5
						c-0.4,0-0.7-0.3-0.8-0.8v-1.7c0-0.4,0.3-0.7,0.7-0.8l0,0h3.7v-3.2c0-0.4,0.3-0.7,0.8-0.8l3.6-0.6h0.2c0.3,0,0.6,0.2,0.6,0.6
						l0,0v4h3.5c0.4,0,0.7,0.3,0.8,0.7l0,0v2.3c0,0.4-0.3,0.7-0.7,0.8l0,0h-3.5v12.2c0,1.9,0.1,2.2,1.5,2.2h2.1
						c0.5,0,0.8,0.2,0.8,0.6v2.4C-2596.4-3164.7-2596.7-3164.5-2597.2-3164.4z"/>
					<path id="Path_444" class="st3" d="M-2588.3-3164.4h-3.6c-0.4,0-0.8-0.4-0.8-0.8v-28c0-0.4,0.3-0.7,0.7-0.8l0,0h3.6
						c0.4,0,0.7,0.3,0.8,0.7l0,0v28C-2587.6-3164.8-2587.9-3164.5-2588.3-3164.4z"/>
					<path id="Path_445" class="st3" d="M-2565.2-3173.6h-12.7v0.1c0,2.3,0.9,4.9,4.6,4.9c2.9,0,5.5-0.2,7.1-0.4h0.1
						c0.3,0,0.7,0.2,0.7,0.6l0,0v2.6c0,0.6-0.1,0.9-0.8,1c-2.5,0.5-5,0.7-7.6,0.6c-3.9,0-9.4-2.1-9.4-9.8v-2.9
						c0-6.1,3.4-9.9,9.3-9.9c6,0,9.2,4.1,9.2,9.9v2.2C-2564.4-3174-2564.6-3173.6-2565.2-3173.6z M-2569.5-3177.4
						c0-3-1.7-4.8-4.1-4.8c-2.4,0-4.2,1.7-4.2,4.8v0.2h8.3V-3177.4L-2569.5-3177.4z"/>
					<path id="Path_446" class="st3" d="M-2552.9-3164.1c-2.3,0-4.7-0.3-7-0.8c-0.5-0.1-0.8-0.5-0.8-0.9v-2.3c0-0.4,0.3-0.6,0.6-0.6
						h0.2c1.9,0.2,5.3,0.4,6.5,0.4c2.4,0,2.8-0.8,2.8-1.9c0-0.8-0.5-1.2-1.7-2l-5.3-3.2c-1.9-1.1-3.2-3.1-3.2-5.3
						c0-3.9,2.4-5.8,7.4-5.8c2.3,0,4.6,0.2,6.9,0.8c0.4,0.1,0.7,0.5,0.7,0.9v2.3c0,0.5-0.2,0.8-0.6,0.8h-0.2
						c-2.1-0.3-4.3-0.4-6.4-0.5c-1.9,0-2.7,0.4-2.7,1.6c0,0.6,0.6,1,1.6,1.6l5.1,3.1c3.2,2,3.7,3.9,3.7,5.9
						C-2545.2-3166.8-2547.8-3164.1-2552.9-3164.1z"/>
					<path id="Path_447" class="st3" d="M-2529.8-3164.4c-0.9,0.2-1.8,0.3-2.6,0.3c-4.4,0-6.2-1-6.2-6.2v-12.2l-3.7-0.5
						c-0.4,0-0.7-0.3-0.8-0.8v-1.7c0-0.4,0.3-0.7,0.7-0.8l0,0h3.7v-3.2c0-0.4,0.3-0.7,0.8-0.8l3.6-0.6h0.2c0.3,0,0.6,0.2,0.6,0.6
						l0,0v4h3.5c0.4,0,0.7,0.3,0.8,0.7l0,0v2.3c0,0.4-0.3,0.7-0.7,0.8l0,0h-3.5v12.2c0,1.9,0.1,2.2,1.5,2.2h2.1
						c0.5,0,0.8,0.2,0.8,0.6v2.4C-2529.1-3164.7-2529.3-3164.5-2529.8-3164.4z"/>
					<path id="Path_448" class="st3" d="M-2508.4-3164.4h-3.6c-0.4,0-0.7-0.3-0.8-0.7l0,0v-0.9c-1.8,1.3-3.9,2-6.1,1.9
						c-1.8,0.1-3.5-0.5-4.8-1.6c-1.5-1.5-1.9-3.8-1.9-7.1v-12.7c0-0.4,0.3-0.8,0.8-0.8h3.6c0.4,0,0.8,0.4,0.8,0.8v12.7
						c0,1.9,0.2,3.1,0.9,3.7c0.7,0.5,1.6,0.8,2.4,0.7c1.6-0.2,3.1-0.7,4.4-1.6v-15.6c0-0.4,0.3-0.8,0.8-0.8h3.6
						c0.4,0,0.8,0.4,0.8,0.8v20.4c0.1,0.3-0.2,0.7-0.5,0.8C-2508.3-3164.4-2508.4-3164.4-2508.4-3164.4z"/>
					<path id="Path_449" class="st3" d="M-2486.2-3165.1c-2.6,0.7-5.2,1-7.8,1c-6.3,0-9.3-3.7-9.3-9.8v-3c0-6.1,3-9.8,9.3-9.8
						c1.2,0,2.5,0.1,3.7,0.3v-6.9c0-0.4,0.3-0.7,0.7-0.8l0,0h3.6c0.4,0,0.7,0.3,0.8,0.7l0,0v27.1
						C-2485.2-3165.6-2485.4-3165.4-2486.2-3165.1z M-2490.3-3182.2c-1.2-0.2-2.5-0.3-3.7-0.3c-3.4,0-4.2,2.4-4.2,5.6v3
						c0,3.2,0.8,5.6,4.2,5.6c1.2,0,2.5-0.1,3.7-0.3V-3182.2z"/>
					<path id="Path_450" class="st3" d="M-2463-3173.6h-12.7v0.1c0,2.3,0.9,4.9,4.6,4.9c2.9,0,5.5-0.2,7.1-0.4h0.1
						c0.3,0,0.7,0.2,0.7,0.6l0,0v2.6c0,0.6-0.1,0.9-0.8,1c-2.5,0.5-5,0.7-7.6,0.6c-3.9,0-9.4-2.1-9.4-9.8v-2.9
						c0-6.1,3.4-9.9,9.3-9.9c6,0,9.2,4.1,9.2,9.9v2.2C-2462.2-3174-2462.5-3173.6-2463-3173.6z M-2467.4-3177.4c0-3-1.7-4.8-4.1-4.8
						s-4.2,1.7-4.2,4.8v0.2h8.3V-3177.4z"/>
					<path id="Path_451" class="st3" d="M-2440.6-3164.4h-3.6c-0.4,0-0.8-0.4-0.8-0.8v-12.7c0-3.4-0.3-4.4-3.3-4.4
						c-1.5,0.1-3,0.6-4.4,1.4v15.6c0,0.4-0.3,0.8-0.8,0.8h-3.6c-0.4,0-0.8-0.4-0.8-0.8v-20.4c0-0.4,0.3-0.7,0.7-0.8l0,0h3.4
						c0.4,0,0.7,0.3,0.8,0.7l0,0v0.8c1.8-1.3,4.1-2,6.3-1.9c5.6,0,6.8,3.8,6.8,8.7v12.7C-2439.8-3164.9-2440.1-3164.5-2440.6-3164.4
						z"/>
					<path id="Path_452" class="st3" d="M-2424-3164.4c-0.9,0.2-1.8,0.3-2.6,0.3c-4.4,0-6.2-1-6.2-6.2v-12.2l-3.7-0.5
						c-0.4,0-0.7-0.3-0.8-0.8v-1.7c0-0.4,0.3-0.7,0.7-0.8l0,0h3.7v-3.2c0-0.4,0.3-0.7,0.8-0.8l3.6-0.6h0.2c0.3,0,0.6,0.2,0.6,0.6
						l0,0v4h3.5c0.4,0,0.7,0.3,0.8,0.7l0,0v2.3c0,0.4-0.3,0.7-0.7,0.8l0,0h-3.6v12.2c0,1.9,0.1,2.2,1.5,2.2h2.1
						c0.5,0,0.8,0.2,0.8,0.6v2.4C-2423.3-3164.7-2423.6-3164.5-2424-3164.4z"/>
				</g>
			</g>
		</g>
	</g>
</g>
<rect x="297.1" y="824.8" class="st4" width="487.3" height="115.5"/>
<text transform="matrix(1 0 0 1 297.1024 849.0284)" class="st1 st5 st6">CONTACT US</text>
<text transform="matrix(1 0 0 1 297.1024 908.0284)" class="st1 st5 st6">gentlestudent@arteveldehs.be</text>
<path class="st7" d="M0,740.3h1920l7.5-729.5C1927.5,10.8,734-161,0,740.3z"/>
<path class="st7" d="M-602,1487.6"/>
</svg>
