<?xml version="1.0" encoding="utf-8"?>
<!-- Generator: Adobe Illustrator 22.0.0, SVG Export Plug-In . SVG Version: 6.00 Build 0)  -->
<svg version="1.1" id="Layer_1" xmlns="http://www.w3.org/2000/svg" xmlns:xlink="http://www.w3.org/1999/xlink" x="0px" y="0px"
	 viewBox="0 0 1920 1080" style="enable-background:new 0 0 1920 1080;" xml:space="preserve">
<style type="text/css">
	.st0{fill:#BBE2F1;}
	.st1{fill:#F3B4D2;}
	.st2{opacity:0.502;fill:#F2F0ED;}
	.st3{opacity:0.2471;enable-background:new    ;}
	.st4{clip-path:url(#SVGID_2_);fill:#04ABCD;}
	.st5{fill:#F2FAFD;}
	.st6{fill:none;stroke:#04ABCD;stroke-width:10;}
</style>
<path class="st0" d="M1548.3,585.2c0.4,0,0.8,0.3,1.1,0.5l5.4,3.6l-0.3-6.6c-0.1-0.8,0.4-1.8,1-2.3l5-4.1l-6.2-1.7
	c-1-0.1-1.5-0.8-1.8-1.6l-2.4-6.1l-3.6,5.4c-0.5,0.8-1.3,1.3-2.1,1.2l-6.4,0.3l4.1,5c0.5,0.7,0.8,1.7,0.5,2.5l-1.9,6.2l6.1-2.4
	C1547.3,585.3,1547.9,585.1,1548.3,585.2z M1554.6,591.9c-0.4,0-0.8-0.3-1.1-0.5l-5.5-3.4l-6.1,2.4c-1,0.3-2,0.2-3-0.5
	c-0.7-0.9-1-1.9-0.7-2.9l1.9-6.2l-4.3-5.1c-0.7-0.9-0.8-1.9-0.3-2.8c0.5-0.9,1.4-1.7,2.4-1.6l6.4-0.3l3.4-5.5
	c0.7-0.9,1.8-1.4,2.7-1.3c1,0.1,1.9,0.8,2.2,1.8l2.2,6l6.4,1.7c1,0.3,1.7,1,2,2c0.3,1-0.2,2-1.1,2.7l-5,4.1l0.5,6.5
	c0.1,1-0.4,2-1.3,2.5C1555.8,591.8,1555.2,591.9,1554.6,591.9z"/>
<path class="st0" d="M1542.4,411.6c0.4,0,0.8,0.3,1.1,0.5l5.4,3.6l-0.3-6.6c-0.1-0.8,0.4-1.8,1-2.3l5-4.1l-6.2-1.7
	c-1-0.1-1.5-0.8-1.8-1.6l-2.4-6.1l-3.6,5.4c-0.5,0.8-1.3,1.3-2.1,1.2l-6.4,0.3l4.1,5c0.5,0.7,0.8,1.7,0.5,2.5l-1.9,6.2l6.1-2.4
	C1541.4,411.7,1542,411.6,1542.4,411.6z M1548.7,418.3c-0.4,0-0.8-0.3-1.1-0.5l-5.5-3.4l-6.1,2.4c-1,0.3-2,0.2-3-0.5
	c-0.7-0.9-1-1.9-0.7-2.9l1.9-6.2l-4.3-5.1c-0.7-0.9-0.8-1.9-0.3-2.8c0.5-0.9,1.4-1.7,2.4-1.6l6.4-0.3l3.4-5.5
	c0.7-0.9,1.8-1.4,2.7-1.3c1,0.1,1.9,0.8,2.2,1.8l2.2,6l6.4,1.7c1,0.3,1.7,1,2,2c0.3,1-0.2,2-1.1,2.7l-5,4.1l0.5,6.5
	c0.1,1-0.4,2-1.3,2.5C1549.9,418.2,1549.3,418.4,1548.7,418.3z"/>
<path class="st0" d="M1697.8,521.5c0.4,0,0.8,0.3,1.1,0.5l5.4,3.6l-0.3-6.6c-0.1-0.8,0.4-1.8,1-2.3l5-4.1l-6.2-1.7
	c-1-0.1-1.5-0.8-1.8-1.6l-2.4-6.1l-3.6,5.4c-0.5,0.8-1.3,1.3-2.1,1.2l-6.4,0.3l4.1,5c0.5,0.7,0.8,1.7,0.5,2.5l-1.9,6.2l6.1-2.4
	C1696.8,521.6,1697.4,521.4,1697.8,521.5z M1704.1,528.1c-0.4,0-0.8-0.3-1.1-0.5l-5.5-3.4l-6.1,2.4c-1,0.3-2,0.2-3-0.5
	c-0.7-0.9-1-1.9-0.7-2.9l1.9-6.2l-4.3-5.1c-0.7-0.9-0.8-1.9-0.3-2.8c0.5-0.9,1.4-1.7,2.4-1.6l6.4-0.3l3.4-5.5
	c0.7-0.9,1.8-1.4,2.7-1.3c1,0.1,1.9,0.8,2.2,1.8l2.2,6l6.4,1.7c1,0.3,1.7,1,2,2c0.3,1-0.2,2-1.1,2.7l-5,4.1l0.5,6.5
	c0.1,1-0.4,2-1.3,2.5C1705.3,528.1,1704.7,528.2,1704.1,528.1z"/>
<path class="st0" d="M1511.2,535.4c0.4-0.1,0.8,0,1.3,0l6.4,1.2l-2.9-6c-0.4-0.7-0.3-1.8,0.1-2.5l3-5.7l-6.4,0.9
	c-1,0.3-1.7-0.1-2.3-0.8l-4.5-4.7l-1.2,6.4c-0.1,0.9-0.7,1.7-1.5,1.9l-5.8,2.8l5.7,3c0.7,0.4,1.4,1.2,1.5,2.1l0.7,6.4l4.7-4.5
	C1510.3,535.9,1510.8,535.6,1511.2,535.4z M1519.6,539.1c-0.4,0.1-0.8,0-1.3,0l-6.3-1l-4.7,4.5c-0.8,0.7-1.8,1-2.9,0.7
	c-1-0.5-1.7-1.4-1.8-2.4l-0.7-6.4l-5.9-3c-1-0.5-1.5-1.4-1.4-2.5c0.1-1.1,0.6-2.1,1.6-2.4l5.8-2.8l1-6.3c0.3-1.1,1.1-2,2-2.3
	s2.1,0,2.8,0.8l4.4,4.7l6.6-1c1-0.1,1.9,0.2,2.6,1.1c0.7,0.8,0.6,1.9,0.1,2.9l-3,5.7l3,5.7c0.5,0.9,0.4,2-0.2,2.8
	C1520.7,538.6,1520.2,538.9,1519.6,539.1z"/>
<path class="st0" d="M1505.3,361.9c0.4-0.1,0.8,0,1.3,0l6.4,1.2l-2.9-6c-0.4-0.7-0.3-1.8,0.1-2.5l3-5.7l-6.4,0.9
	c-1,0.3-1.7-0.1-2.3-0.8l-4.5-4.7l-1.2,6.4c-0.1,0.9-0.7,1.7-1.5,1.9l-5.8,2.8l5.7,3c0.7,0.4,1.4,1.2,1.5,2.1l0.7,6.4l4.7-4.5
	C1504.4,362.3,1505,362,1505.3,361.9z M1513.8,365.5c-0.4,0.1-0.8,0-1.3,0l-6.3-1l-4.7,4.5c-0.8,0.7-1.8,1-2.9,0.7
	c-1-0.5-1.7-1.4-1.8-2.4l-0.7-6.4l-5.9-3c-1-0.5-1.5-1.4-1.4-2.5c0.1-1.1,0.6-2.1,1.6-2.4l5.8-2.8l1-6.3c0.3-1.1,1.1-2,2-2.3
	s2.1,0,2.8,0.8l4.4,4.7l6.6-1c1-0.1,1.9,0.2,2.6,1.1c0.7,0.8,0.6,1.9,0.1,2.9l-3,5.7l3,5.7c0.5,0.9,0.4,2-0.2,2.8
	C1514.8,365,1514.3,365.4,1513.8,365.5z"/>
<path class="st1" d="M1579.4,489.3c0.4-0.1,0.8,0,1.3,0l6.4,1.2l-2.9-6c-0.4-0.7-0.3-1.8,0.1-2.5l3-5.7l-6.4,0.9
	c-1,0.3-1.7-0.1-2.3-0.8l-4.5-4.7l-1.2,6.4c-0.1,0.9-0.7,1.7-1.5,1.9l-5.8,2.8l5.7,3c0.7,0.4,1.4,1.2,1.5,2.1l0.7,6.4l4.7-4.5
	C1578.5,489.8,1579,489.4,1579.4,489.3z M1587.8,493c-0.4,0.1-0.8,0-1.3,0l-6.3-1l-4.7,4.5c-0.8,0.7-1.8,1-2.9,0.7
	c-1-0.5-1.7-1.4-1.8-2.4l-0.7-6.4l-5.9-3c-1-0.5-1.5-1.4-1.4-2.5c0.1-1.1,0.6-2.1,1.6-2.4l5.8-2.8l1-6.3c0.3-1.1,1.1-2,2-2.3
	s2.1,0,2.8,0.8l4.4,4.7l6.6-1c1-0.1,1.9,0.2,2.6,1.1c0.7,0.8,0.6,1.9,0.1,2.9l-3,5.7l3,5.7c0.5,0.9,0.4,2-0.2,2.8
	C1588.9,492.4,1588.4,492.8,1587.8,493z"/>
<path class="st1" d="M1572,643.6c0.4,0.2,0.6,0.5,0.9,0.9l4.1,5.1l1.8-6.4c0.1-0.8,0.9-1.6,1.7-1.9l6.1-2.3l-5.4-3.5
	c-0.9-0.4-1.2-1.2-1.3-2.1l-0.4-6.5l-5.1,4.1c-0.7,0.6-1.7,0.8-2.4,0.5l-6.2-1.7l2.3,6.1c0.3,0.8,0.3,1.9-0.2,2.5l-3.7,5.3l6.5-0.4
	C1571,643.4,1571.6,643.5,1572,643.6z M1575.9,651.9c-0.4-0.2-0.6-0.5-0.9-0.9l-4.1-4.9l-6.5,0.4c-1.1,0-2-0.4-2.6-1.4
	c-0.4-1.1-0.4-2.1,0.2-3l3.7-5.3l-2.5-6.1c-0.4-1.1-0.2-2,0.6-2.8s1.8-1.2,2.7-0.7l6.2,1.7l4.9-4.1c1-0.7,2.1-0.8,3-0.4
	c0.9,0.4,1.6,1.4,1.5,2.4l0.2,6.4l5.6,3.6c0.8,0.6,1.3,1.5,1.3,2.5s-0.8,1.8-1.9,2.2l-6.1,2.3l-1.5,6.3c-0.2,1-1,1.7-2,2
	C1577.1,652.2,1576.5,652.2,1575.9,651.9z"/>
<path class="st1" d="M1539.6,344.9c0.3,0.1,0.5,0.4,0.7,0.7l3.2,4l1.4-5c0.1-0.6,0.7-1.2,1.3-1.4l4.7-1.8l-4.2-2.7
	c-0.7-0.3-0.9-0.9-1-1.6l-0.3-5.1l-4,3.2c-0.5,0.4-1.3,0.6-1.9,0.4l-4.8-1.3l1.8,4.7c0.2,0.6,0.2,1.4-0.2,2l-2.9,4.2l5.1-0.3
	C1538.9,344.7,1539.3,344.8,1539.6,344.9z M1542.7,351.4c-0.3-0.1-0.5-0.4-0.7-0.7l-3.2-3.8l-5.1,0.3c-0.8,0-1.5-0.3-2.1-1.1
	c-0.3-0.8-0.3-1.7,0.2-2.3l2.9-4.2l-1.9-4.8c-0.3-0.8-0.1-1.6,0.5-2.2s1.4-0.9,2.1-0.6l4.8,1.3l3.8-3.2c0.7-0.5,1.6-0.6,2.3-0.3
	s1.2,1.1,1.2,1.9l0.2,5l4.4,2.8c0.6,0.5,1,1.1,1,2c0,0.8-0.6,1.4-1.4,1.7l-4.7,1.8l-1.2,4.9c-0.2,0.8-0.8,1.4-1.5,1.5
	C1543.6,351.6,1543.1,351.6,1542.7,351.4z"/>
<path class="st0" d="M1660.7,471.7c0.4-0.1,0.8,0,1.3,0l6.4,1.2l-2.9-6c-0.4-0.7-0.3-1.8,0.1-2.5l3-5.7l-6.4,0.9
	c-1,0.3-1.7-0.1-2.3-0.8l-4.5-4.7l-1.2,6.4c-0.1,0.9-0.7,1.7-1.5,1.9l-5.8,2.8l5.7,3c0.7,0.4,1.4,1.2,1.5,2.1l0.7,6.4l4.7-4.5
	C1659.8,472.2,1660.3,471.8,1660.7,471.7z M1669.1,475.4c-0.4,0.1-0.8,0-1.3,0l-6.3-1l-4.7,4.5c-0.8,0.7-1.8,1-2.9,0.7
	c-1-0.5-1.7-1.4-1.8-2.4l-0.7-6.4l-5.9-3c-1-0.5-1.5-1.4-1.4-2.5c0.1-1.1,0.6-2.1,1.6-2.4l5.8-2.8l1-6.3c0.3-1.1,1.1-2,2-2.3
	s2.1,0,2.8,0.8l4.4,4.7l6.6-1c1-0.1,1.9,0.2,2.6,1.1c0.7,0.8,0.6,1.9,0.1,2.9l-3,5.7l3,5.7c0.5,0.9,0.4,2-0.2,2.8
	C1670.2,474.8,1669.7,475.2,1669.1,475.4z"/>
<path class="st0" d="M1497,602.4c0.4,0.3,0.6,0.8,0.8,1.3l3.1,7.4l4.2-7c0.4-0.9,1.6-1.5,2.6-1.6l7.9-0.7l-5.2-6
	c-0.9-0.8-1-1.8-0.8-2.9l1.7-7.8l-7.4,3.1c-1,0.4-2.2,0.4-3-0.3l-6.8-4.1l0.7,7.9c0.1,1-0.3,2.3-1.1,2.9l-6.1,5l7.8,1.7
	C1495.9,601.8,1496.6,602,1497,602.4z M1498.8,613.4c-0.4-0.3-0.6-0.8-0.8-1.3l-3.2-7.2l-7.8-1.7c-1.2-0.4-2.2-1.2-2.6-2.5
	c-0.1-1.4,0.3-2.6,1.3-3.4l6.1-5l-0.9-8.1c-0.1-1.4,0.5-2.5,1.6-3.1c1.2-0.6,2.5-0.7,3.5,0l6.8,4.1l7.2-3.2c1.3-0.5,2.7-0.2,3.7,0.5
	s1.4,2.1,1,3.4l-1.9,7.6l5.4,6.1c0.8,1,1.1,2.2,0.6,3.4c-0.4,1.2-1.6,1.9-2.9,2l-7.9,0.7l-3.9,6.9c-0.6,1.1-1.8,1.7-3,1.6
	C1500.1,614.2,1499.4,613.9,1498.8,613.4z"/>
<path class="st0" d="M1491.1,428.8c0.4,0.3,0.6,0.8,0.8,1.3l3.1,7.4l4.2-7c0.4-0.9,1.6-1.5,2.6-1.6l7.9-0.7l-5.2-6
	c-0.9-0.8-1-1.8-0.8-2.9l1.7-7.8l-7.4,3.1c-1,0.4-2.2,0.4-3-0.3l-6.8-4.1l0.7,7.9c0.1,1-0.3,2.3-1.1,2.9l-6.1,5l7.8,1.7
	C1490,428.2,1490.7,428.5,1491.1,428.8z M1492.9,439.9c-0.4-0.3-0.6-0.8-0.8-1.3l-3.2-7.2l-7.8-1.7c-1.2-0.4-2.2-1.2-2.6-2.5
	c-0.1-1.4,0.3-2.6,1.3-3.4l6.1-5l-0.9-8.1c-0.1-1.4,0.5-2.5,1.6-3.1c1.2-0.6,2.5-0.7,3.5,0l6.8,4.1l7.2-3.2c1.3-0.5,2.7-0.2,3.7,0.5
	s1.4,2.1,1,3.4l-1.9,7.6l5.4,6.1c0.8,1,1.1,2.2,0.6,3.4c-0.4,1.2-1.6,1.9-2.9,2l-7.9,0.7l-3.9,6.9c-0.6,1.1-1.8,1.7-3,1.6
	C1494.2,440.6,1493.5,440.4,1492.9,439.9z"/>
<path class="st0" d="M1646.5,538.6c0.4,0.3,0.6,0.8,0.8,1.3l3.1,7.4l4.2-7c0.4-0.9,1.6-1.5,2.6-1.6l7.9-0.7l-5.2-6
	c-0.9-0.8-1-1.8-0.8-2.9l1.7-7.8l-7.4,3.1c-1,0.4-2.2,0.4-3-0.3l-6.8-4.1l0.7,7.9c0.1,1-0.3,2.3-1.1,2.9l-6.1,5l7.8,1.7
	C1645.4,538,1646.1,538.3,1646.5,538.6z M1648.3,549.7c-0.4-0.3-0.6-0.8-0.8-1.3l-3.2-7.2l-7.8-1.7c-1.2-0.4-2.2-1.2-2.6-2.5
	c-0.1-1.4,0.3-2.6,1.3-3.4l6.1-5l-0.9-8.1c-0.1-1.4,0.5-2.5,1.6-3.1c1.2-0.6,2.5-0.7,3.5,0l6.8,4.1l7.2-3.2c1.3-0.5,2.7-0.2,3.7,0.5
	s1.4,2.1,1,3.4l-1.9,7.6l5.4,6.1c0.8,1,1.1,2.2,0.6,3.4c-0.4,1.2-1.6,1.9-2.9,2l-7.9,0.7l-3.9,6.9c-0.6,1.1-1.8,1.7-3,1.6
	C1649.6,550.5,1648.9,550.2,1648.3,549.7z"/>
<path class="st2" d="M1920,1080L0,1080l0-847.8c22.3-0.6,45-0.9,67.2-0.9c39.7,0,80,0.9,119.8,2.7c40,1.8,80.6,4.6,120.7,8.3
	c40.3,3.7,81.2,8.4,121.4,13.9c40.5,5.6,81.6,12.2,121.9,19.6c40.7,7.5,81.8,16,122.2,25.4c40.7,9.4,81.9,19.9,122.3,31.2
	c40.7,11.4,81.8,23.9,122.1,37.1c40.6,13.4,81.6,27.9,121.7,43.1c37.8,14.4,75.8,29.7,112.8,45.7c36.7,15.8,73.6,32.6,109.5,49.9
	c35.7,17.2,71.3,35.3,106.1,53.9c34.5,18.5,69,37.9,102.5,57.7c33.4,19.8,66.7,40.4,98.9,61.4c32.1,20.9,64.1,42.8,95.2,65
	c30.9,22.1,61.6,45,91.4,68.3c29.6,23.1,59,47.2,87.5,71.5c25.9,22.1,51.6,45,76.6,68.1L1920,1080L1920,1080L1920,1080z"/>
<g class="st3">
	<g>
		<defs>
			<rect id="SVGID_1_" x="108" y="1.3" width="419" height="419"/>
		</defs>
		<clipPath id="SVGID_2_">
			<use xlink:href="#SVGID_1_"  style="overflow:visible;"/>
		</clipPath>
		<path class="st4" d="M450.8,180.9h-59.9h-81.5v58h80.9c-3.8,9.6-9.6,18.5-17.2,26.8c-14.7,14.7-34.4,22.9-55.4,22.9
			c-21,0-40.8-8.3-55.4-22.9c-14.7-14.7-22.9-34.4-22.9-55.4c0-21,8.3-40.8,22.9-55.4c14.7-14.7,34.4-22.9,55.4-22.9
			c20.4,0,39.5,7.6,54.2,21.7l2.5,2.5h69.4l-7-12.1c-17.8-31.9-48.4-55.4-83.5-65c-37.6-10.2-77.7-3.8-114.7,17.8
			c-14.7,8.3-26.8,20.4-35,35c-35.7,59.9-29.3,128.7,15.9,175.2c26.8,27.4,61.2,40.8,97.5,40.8c25.5,0,51.6-7,76.5-21
			c14-7.6,26.1-19.1,35-33.1c11.5-17.2,18.5-35.7,22.3-53.5h25.5c-14,75.2-79.6,132.5-159.3,132.5c-86,0-157.4-67.5-161.8-153.5
			c-2.5-44.6,13.4-87.3,44.6-119.8c30.6-32.5,73.3-51,117.2-51c2.5,0,5.7,0,8.3,0c75.8,3.8,137.6,59.9,150.4,132.5L450.8,180.9
			L450.8,180.9z M511.3,129.3C489,79.6,452.7,42,406.2,20.4C382,8.9,355.9,2.5,328.5,1.3c-3.8,0-7.6,0-10.8,0
			c-29.3,0-57.3,5.7-84.1,17.8c-25.5,11.5-48.4,27.4-67.5,47.8c-19.1,20.4-34.4,44-44,70.1c-10.2,27.4-14.7,55.4-13.4,84.7
			c1.3,26.8,7.6,52.9,19.1,77.7c21.7,46.5,59.2,82.8,108.9,105.1c22.3,10.2,46.5,15.3,72.6,15.3h217.2V202.6
			C526.6,175.8,521.5,151.6,511.3,129.3z"/>
	</g>
</g>
<path class="st5" d="M429,741.7v-538c0-4.1,1.5-7.7,4.4-10.6c2.9-2.9,6.5-4.4,10.6-4.4h1032c4.1,0,7.7,1.5,10.6,4.4
	c2.9,2.9,4.4,6.5,4.4,10.6v538c0,4.1-1.5,7.7-4.4,10.6c-2.9,2.9-6.5,4.4-10.6,4.4H444c-4.1,0-7.7-1.5-10.6-4.4
	C430.5,749.4,429,745.9,429,741.7z"/>
<path class="st6" d="M429,741.7v-538c0-4.1,1.5-7.7,4.4-10.6c2.9-2.9,6.5-4.4,10.6-4.4h1032c4.1,0,7.7,1.5,10.6,4.4
	c2.9,2.9,4.4,6.5,4.4,10.6v538c0,4.1-1.5,7.7-4.4,10.6c-2.9,2.9-6.5,4.4-10.6,4.4H444c-4.1,0-7.7-1.5-10.6-4.4
	C430.5,749.4,429,745.9,429,741.7z"/>
</svg>
