<svg xmlns="http://www.w3.org/2000/svg" xmlns:xlink="http://www.w3.org/1999/xlink" viewBox="2654 3194 1920 996">
  <defs>
    <style>
      .cls-1 {
        clip-path: url(#clip-Artboard_1);
      }

      .cls-2 {
        fill: rgba(242,240,237,0.5);
      }

      .cls-3 {
        fill: #0ac;
      }

      .cls-4 {
        fill: #f2f0ed;
      }

      .cls-5 {
        fill: #fff;
      }
    </style>
    <clipPath id="clip-Artboard_1">
      <rect x="2654" y="3194" width="1920" height="996"/>
    </clipPath>
  </defs>
  <g id="Artboard_1" data-name="Artboard – 1" class="cls-1">
    <rect class="cls-5" x="2654" y="3194" width="1920" height="996"/>
    <path id="Subtraction_6" data-name="Subtraction 6" class="cls-2" d="M2615.618,4731.457c-33.706-7.364-67.788-15.49-101.3-24.152-33.706-8.713-67.771-18.211-101.248-28.232-33.681-10.083-67.69-20.968-101.082-32.356-33.608-11.463-67.522-23.752-100.8-36.526-37.841-14.526-75.808-30.045-112.848-46.126-36.749-15.955-73.592-32.9-109.506-50.368-35.648-17.339-71.335-35.655-106.069-54.44-34.494-18.654-68.994-38.282-102.541-58.338-33.327-19.925-66.608-40.807-98.917-62.065-32.108-21.125-64.138-43.2-95.2-65.622-30.871-22.279-61.619-45.5-91.391-69.006-29.608-23.381-59.043-47.679-87.488-72.219-28.327-24.44-56.417-49.762-83.489-75.262-26.976-25.407-53.69-51.695-79.4-78.131-25.6-26.328-50.911-53.523-75.215-80.829-24.221-27.214-48.087-55.259-70.937-83.357-22.8-28.031-45.191-56.869-66.565-85.713-21.329-28.781-42.222-58.354-62.1-87.9-19.835-29.48-39.2-59.729-57.542-89.909-18.315-30.128-36.109-61-52.889-91.75-16.77-30.737-32.968-62.168-48.144-93.42-15.184-31.272-29.754-63.208-43.3-94.919-13.565-31.746-26.474-64.128-38.371-96.245-11.919-32.18-23.137-64.951-33.344-97.4-10.232-32.532-19.729-65.634-28.224-98.385-8.521-32.851-16.262-66.225-23.01-99.2-6.772-33.09-12.728-66.68-17.7-99.836-4.995-33.3-9.134-67.043-12.3-100.305-3.184-33.431-5.474-67.279-6.807-100.6-1.341-33.506-1.751-67.4-1.22-100.729.535-33.535,2.036-67.41,4.462-100.684,2.443-33.5,5.888-67.307,10.238-100.468,4.381-33.4,9.8-67.072,16.105-100.079,6.352-33.244,13.776-66.728,22.068-99.52,8.351-33.025,17.813-66.262,28.124-98.788,10.388-32.764,21.919-65.7,34.273-97.885,9.088-23.675,18.812-47.438,28.9-70.631,10.034-23.068,20.706-46.209,31.719-68.781,10.954-22.447,22.55-44.958,34.468-66.905,11.85-21.823,24.346-43.694,37.142-65,12.724-21.194,26.1-42.416,39.743-63.078,13.577-20.557,27.8-41.122,42.271-61.125,14.408-19.915,29.456-39.815,44.726-59.147,15.206-19.254,31.056-38.479,47.108-57.143,15.985-18.588,32.612-37.131,49.416-55.114,16.743-17.917,34.121-35.768,51.651-53.058,17.467-17.228,35.573-34.379,53.814-50.976,18.181-16.544,36.989-32.986,55.9-48.869,18.861-15.841,38.347-31.566,57.918-46.737,19.529-15.139,39.67-30.138,59.861-44.578,20.149-14.411,40.918-28.674,61.73-42.394,20.77-13.691,42.144-27.211,63.527-40.183,21.344-12.949,43.3-25.717,65.249-37.948,21.919-12.213,44.427-24.22,66.9-35.688,22.439-11.45,45.477-22.687,68.476-33.4,22.971-10.7,46.515-21.156,69.98-31.085s47.483-19.6,71.41-28.747c23.9-9.139,48.384-18.016,72.767-26.383s49.286-16.434,74.052-23.992c24.79-7.566,50.112-14.825,75.262-21.576s50.864-13.192,76.4-19.134,51.6-11.549,77.465-16.666,52.276-9.889,78.455-14.174c26.2-4.288,52.9-8.208,79.373-11.654,26.51-3.449,53.5-6.514,80.219-9.109,26.789-2.6,54.038-4.8,80.991-6.538,27.039-1.743,54.523-3.069,81.689-3.942,27.255-.876,54.949-1.32,82.315-1.32,39.678,0,79.99.932,119.817,2.771,40.021,1.848,80.642,4.662,120.736,8.364,40.323,3.725,81.181,8.448,121.44,14.037,40.526,5.626,81.549,12.283,121.928,19.786,40.671,7.557,81.785,16.175,122.2,25.615,40.717,9.509,81.851,20.115,122.26,31.522,40.719,11.5,81.8,24.115,122.1,37.508,40.633,13.5,81.59,28.163,121.733,43.572,37.859,14.534,75.827,30.053,112.848,46.126,36.738,15.95,73.581,32.9,109.506,50.368,35.638,17.334,71.324,35.649,106.07,54.44,34.476,18.644,68.976,38.271,102.541,58.337,33.335,19.93,66.616,40.812,98.918,62.066,32.1,21.123,64.135,43.2,95.2,65.621,30.877,22.284,61.625,45.5,91.391,69.006,29.615,23.388,59.049,47.686,87.486,72.219,28.313,24.427,56.4,49.749,83.49,75.261,26.989,25.421,53.7,51.708,79.4,78.131,25.623,26.347,50.928,53.542,75.214,80.83,24.213,27.2,48.079,55.249,70.937,83.357,22.787,28.022,45.183,56.859,66.564,85.712,21.336,28.791,42.229,58.364,62.1,87.9,19.838,29.484,39.2,59.733,57.542,89.909,18.324,30.145,36.118,61.015,52.888,91.751s32.975,62.179,48.144,93.42c15.181,31.265,29.75,63.2,43.3,94.918,13.562,31.74,26.472,64.122,38.372,96.245,11.918,32.181,23.136,64.951,33.343,97.4,10.234,32.538,19.73,65.639,28.224,98.384,8.521,32.849,16.262,66.224,23.01,99.2,6.773,33.1,12.729,66.686,17.7,99.837,4.993,33.277,9.132,67.025,12.3,100.3,3.182,33.418,5.473,67.266,6.808,100.6,1.34,33.506,1.751,67.4,1.22,100.729-.535,33.517-2.036,67.392-4.462,100.684-2.44,33.48-5.885,67.282-10.237,100.467-4.38,33.394-9.8,67.065-16.106,100.079-6.351,33.244-13.776,66.728-22.068,99.519-8.355,33.041-17.817,66.278-28.124,98.788-10.388,32.764-21.919,65.7-34.273,97.885-7.713,20.094-15.9,40.288-24.328,60.024-8.395,19.655-17.265,39.4-26.365,58.7-9.062,19.212-18.6,38.508-28.359,57.353-9.708,18.752-19.9,37.591-30.308,55.994-10.351,18.31-21.187,36.687-32.21,54.619-10.979,17.862-22.442,35.771-34.069,53.228-11.574,17.38-23.646,34.816-35.882,51.823-12.18,16.928-24.848,33.885-37.652,50.4-25.474,32.855-52.534,65.313-80.431,96.472-27.7,30.942-56.962,61.423-86.968,90.6-29.82,28.993-61.159,57.454-93.146,84.593-31.814,26.993-65.111,53.392-98.966,78.463V1522.993h-1920V4731.457Z" transform="translate(1657.882 2528.008)"/>
    <rect id="Base" class="cls-3" width="1920" height="266.667" transform="translate(2654 3934.333)"/>
    <path id="Path_739" data-name="Path 739" class="cls-4" d="M81.433,399.461a18.147,18.147,0,0,0-8.915-9.24,17.161,17.161,0,0,0-6.592-1.621h-.919a17.087,17.087,0,0,0-7.132,1.513,17.825,17.825,0,0,0-5.727,4.052,17.541,17.541,0,0,0-3.728,5.944,18.079,18.079,0,0,0-1.135,7.186,17.655,17.655,0,0,0,1.621,6.592,18.147,18.147,0,0,0,9.24,8.915,14.637,14.637,0,0,0,6.16,1.3H82.73V405.674A14.708,14.708,0,0,0,81.433,399.461ZM76.3,403.837h-12v4.917h6.862a7.385,7.385,0,0,1-1.459,2.269,6.645,6.645,0,1,1-.108-9.51l.216.216h5.89l-.594-1.027a11.679,11.679,0,0,0-7.078-5.511,12.553,12.553,0,0,0-9.726,1.513,7.848,7.848,0,0,0-2.972,2.972c-3.026,5.079-2.485,10.915,1.351,14.859a11.357,11.357,0,0,0,8.267,3.458,13.2,13.2,0,0,0,6.484-1.783,8.214,8.214,0,0,0,2.972-2.81,13.117,13.117,0,0,0,1.891-4.539h2.161a13.74,13.74,0,0,1-27.232-1.783,13.445,13.445,0,0,1,3.782-10.158,13.707,13.707,0,0,1,9.942-4.323h.7a13.651,13.651,0,0,1,12.752,11.239H76.3Z" transform="translate(3955.115 3635.5)"/>
    <g id="Group_422" data-name="Group 422" transform="translate(4042.329 4024.371)">
      <path id="Path_441" data-name="Path 441" class="cls-4" d="M139.085,415.722h-12.7v.108c0,2.269.919,4.917,4.647,4.917,2.864,0,5.511-.216,7.132-.378h.108a.629.629,0,0,1,.7.594v2.594c0,.648-.108.919-.81,1.027a33.677,33.677,0,0,1-7.565.648c-3.89,0-9.4-2.107-9.4-9.78v-2.864c0-6.052,3.4-9.888,9.348-9.888,6,0,9.24,4.106,9.24,9.888v2.161C139.9,415.4,139.625,415.722,139.085,415.722Zm-4.377-3.782c0-3.026-1.675-4.809-4.106-4.809s-4.16,1.729-4.16,4.809v.162h8.267Z" transform="translate(-121.2 -395.352)"/>
      <path id="Path_442" data-name="Path 442" class="cls-4" d="M181.174,424.815h-3.566a.785.785,0,0,1-.756-.81v-12.7c0-3.4-.324-4.377-3.3-4.377a9.78,9.78,0,0,0-4.377,1.4v15.615a.785.785,0,0,1-.756.81h-3.566a.785.785,0,0,1-.756-.81v-20.37a.739.739,0,0,1,.756-.756h3.4a.739.739,0,0,1,.756.756v.81a10.015,10.015,0,0,1,6.322-1.891c5.619,0,6.754,3.782,6.754,8.7v12.7A1.029,1.029,0,0,1,181.174,424.815Z" transform="translate(-140.92 -395.26)"/>
      <path id="Path_443" data-name="Path 443" class="cls-4" d="M215.138,421.376a15.184,15.184,0,0,1-2.648.27c-4.377,0-6.16-.973-6.16-6.16V403.275l-3.674-.54a.773.773,0,0,1-.756-.756v-1.729a.739.739,0,0,1,.756-.756h3.674V396.3a.773.773,0,0,1,.756-.756l3.62-.648h.162a.611.611,0,0,1,.648.594v4h3.512a.739.739,0,0,1,.756.756v2.269a.739.739,0,0,1-.756.756h-3.512v12.211c0,1.945.108,2.161,1.513,2.161h2.053c.486,0,.81.216.81.594v2.431C215.894,421.052,215.624,421.268,215.138,421.376Z" transform="translate(-158.296 -391.766)"/>
      <path id="Path_444" data-name="Path 444" class="cls-4" d="M239.077,418.656h-3.62a.785.785,0,0,1-.756-.81V389.856a.739.739,0,0,1,.756-.756h3.62a.739.739,0,0,1,.756.756v27.989A.867.867,0,0,1,239.077,418.656Z" transform="translate(-173.373 -389.1)"/>
      <path id="Path_445" data-name="Path 445" class="cls-4" d="M270.385,415.722h-12.7v.108c0,2.269.919,4.917,4.647,4.917,2.864,0,5.511-.216,7.132-.378h.108a.629.629,0,0,1,.7.594v2.594c0,.648-.108.919-.81,1.027a33.677,33.677,0,0,1-7.565.648c-3.89,0-9.4-2.107-9.4-9.78v-2.864c0-6.052,3.4-9.888,9.348-9.888,6,0,9.24,4.106,9.24,9.888v2.161C271.141,415.4,270.925,415.722,270.385,415.722Zm-4.377-3.782c0-3.026-1.675-4.809-4.106-4.809s-4.16,1.729-4.16,4.809v.162h8.267v-.162Z" transform="translate(-181.556 -395.352)"/>
      <path id="Path_446" data-name="Path 446" class="cls-4" d="M301.543,425.231a34.961,34.961,0,0,1-6.97-.756.882.882,0,0,1-.756-.919v-2.323a.657.657,0,0,1,.648-.648h.162c1.891.216,5.349.432,6.538.432,2.431,0,2.756-.81,2.756-1.891,0-.756-.486-1.189-1.729-2l-5.349-3.242a6.47,6.47,0,0,1-3.242-5.349c0-3.89,2.431-5.836,7.4-5.836a28.885,28.885,0,0,1,6.916.756.839.839,0,0,1,.7.919v2.269c0,.486-.216.756-.648.756h-.162a55.166,55.166,0,0,0-6.43-.486c-1.891,0-2.7.432-2.7,1.621,0,.648.594,1.027,1.567,1.621l5.079,3.134c3.242,2,3.728,3.944,3.728,5.889C309.215,422.53,306.676,425.231,301.543,425.231Z" transform="translate(-200.448 -395.352)"/>
      <path id="Path_447" data-name="Path 447" class="cls-4" d="M339.738,421.376a15.183,15.183,0,0,1-2.648.27c-4.377,0-6.16-.973-6.16-6.16V403.275l-3.674-.54a.773.773,0,0,1-.756-.756v-1.729a.739.739,0,0,1,.756-.756h3.674V396.3a.773.773,0,0,1,.756-.756l3.62-.648h.162a.611.611,0,0,1,.648.594v4h3.512a.739.739,0,0,1,.756.756v2.269a.739.739,0,0,1-.756.756h-3.512v12.211c0,1.945.108,2.161,1.513,2.161h2.053c.486,0,.81.216.81.594v2.431C340.44,421.052,340.224,421.268,339.738,421.376Z" transform="translate(-215.572 -391.766)"/>
      <path id="Path_448" data-name="Path 448" class="cls-4" d="M375.982,425.137h-3.566a.739.739,0,0,1-.756-.756v-.919a10.154,10.154,0,0,1-6.106,1.945,6.663,6.663,0,0,1-4.809-1.621c-1.459-1.459-1.945-3.836-1.945-7.078v-12.7a.785.785,0,0,1,.756-.81h3.566a.785.785,0,0,1,.756.81v12.7c0,1.945.162,3.08.919,3.728a3.273,3.273,0,0,0,2.431.7,10.607,10.607,0,0,0,4.377-1.567V404.01a.785.785,0,0,1,.756-.81h3.566a.785.785,0,0,1,.756.81v20.37A.644.644,0,0,1,375.982,425.137Z" transform="translate(-230.419 -395.581)"/>
      <path id="Path_449" data-name="Path 449" class="cls-4" d="M417.128,417.953a32.145,32.145,0,0,1-7.835,1.027c-6.268,0-9.294-3.674-9.294-9.78v-2.972c0-6.052,3.026-9.78,9.294-9.78a26.09,26.09,0,0,1,3.728.27v-6.862a.739.739,0,0,1,.756-.756h3.566a.739.739,0,0,1,.756.756v27.07C418.155,417.521,417.993,417.737,417.128,417.953Zm-4.106-17.02a31.053,31.053,0,0,0-3.728-.27c-3.35,0-4.16,2.377-4.16,5.565V409.2c0,3.188.81,5.565,4.16,5.565a22.014,22.014,0,0,0,3.728-.27Z" transform="translate(-249.358 -389.1)"/>
      <path id="Path_450" data-name="Path 450" class="cls-4" d="M459.485,415.722h-12.7v.108c0,2.269.919,4.917,4.647,4.917,2.864,0,5.511-.216,7.132-.378h.108a.629.629,0,0,1,.7.594v2.594c0,.648-.108.919-.81,1.027a33.677,33.677,0,0,1-7.565.648c-3.89,0-9.4-2.107-9.4-9.78v-2.864c0-6.052,3.4-9.888,9.348-9.888,6,0,9.24,4.106,9.24,9.888v2.161C460.3,415.4,460.025,415.722,459.485,415.722Zm-4.377-3.782c0-3.026-1.675-4.809-4.106-4.809s-4.16,1.729-4.16,4.809v.162h8.267Z" transform="translate(-268.48 -395.352)"/>
      <path id="Path_451" data-name="Path 451" class="cls-4" d="M501.574,424.815h-3.566a.785.785,0,0,1-.756-.81v-12.7c0-3.4-.324-4.377-3.3-4.377a9.78,9.78,0,0,0-4.377,1.4v15.615a.785.785,0,0,1-.756.81h-3.566a.785.785,0,0,1-.756-.81v-20.37a.739.739,0,0,1,.756-.756h3.4a.739.739,0,0,1,.756.756v.81a10.015,10.015,0,0,1,6.322-1.891c5.619,0,6.754,3.782,6.754,8.7v12.7A1.029,1.029,0,0,1,501.574,424.815Z" transform="translate(-288.201 -395.26)"/>
      <path id="Path_452" data-name="Path 452" class="cls-4" d="M535.538,421.376a15.183,15.183,0,0,1-2.648.27c-4.377,0-6.16-.973-6.16-6.16V403.275l-3.674-.54a.773.773,0,0,1-.756-.756v-1.729a.739.739,0,0,1,.756-.756h3.674V396.3a.773.773,0,0,1,.756-.756l3.62-.648h.162a.611.611,0,0,1,.648.594v4h3.512a.739.739,0,0,1,.756.756v2.269a.739.739,0,0,1-.756.756h-3.566v12.211c0,1.945.108,2.161,1.513,2.161h2.053c.486,0,.811.216.811.594v2.431C536.294,421.052,536.024,421.268,535.538,421.376Z" transform="translate(-305.576 -391.766)"/>
    </g>
  </g>
</svg>
