<?xml version="1.0" encoding="utf-8"?>
<!-- Generator: Adobe Illustrator 22.0.0, SVG Export Plug-In . SVG Version: 6.00 Build 0)  -->
<svg version="1.1" id="Layer_1" xmlns="http://www.w3.org/2000/svg" xmlns:xlink="http://www.w3.org/1999/xlink" x="0px" y="0px"
	 viewBox="0 0 595.3 148" style="enable-background:new 0 0 595.3 148;" xml:space="preserve">
<style type="text/css">
	.st0{fill:#00AACC;}
</style>
<path class="st0" d="M110.5,61.7C107,53.9,101.3,48,94,44.6c-3.8-1.8-7.9-2.8-12.2-3c-0.6,0-1.2,0-1.7,0l0,0c-4.6,0-9,0.9-13.2,2.8
	c-4,1.8-7.6,4.3-10.6,7.5s-5.4,6.9-6.9,11c-1.6,4.3-2.3,8.7-2.1,13.3c0.2,4.2,1.2,8.3,3,12.2c3.4,7.3,9.3,13,17.1,16.5
	c3.5,1.6,7.3,2.4,11.4,2.4h34.1V73.2C112.9,69,112.1,65.2,110.5,61.7z M101,69.8h-9.4H78.8v9.1h12.7c-0.6,1.5-1.5,2.9-2.7,4.2
	c-2.3,2.3-5.4,3.6-8.7,3.6s-6.4-1.3-8.7-3.6c-2.3-2.3-3.6-5.4-3.6-8.7s1.3-6.4,3.6-8.7c2.3-2.3,5.4-3.6,8.7-3.6
	c3.2,0,6.2,1.2,8.5,3.4l0.4,0.4h10.9L98.8,64c-2.8-5-7.6-8.7-13.1-10.2c-5.9-1.6-12.2-0.6-18,2.8c-2.3,1.3-4.2,3.2-5.5,5.5
	c-5.6,9.4-4.6,20.2,2.5,27.5C68.9,93.9,74.3,96,80,96c4,0,8.1-1.1,12-3.3c2.2-1.2,4.1-3,5.5-5.2c1.8-2.7,2.9-5.6,3.5-8.4h4
	c-2.2,11.8-12.5,20.8-25,20.8c-13.5,0-24.7-10.6-25.4-24.1c-0.4-7,2.1-13.7,7-18.8c4.8-5.1,11.5-8,18.4-8c0.4,0,0.9,0,1.3,0
	c11.9,0.6,21.6,9.4,23.6,20.8L101,69.8L101,69.8z"/>
<g>
	<path class="st0" d="M154.3,79.8h-23.5V80c0,4.2,1.7,9.1,8.6,9.1c5.3,0,10.2-0.4,13.2-0.7c0.1,0,0.1,0,0.2,0c0.7,0,1.3,0.4,1.3,1.1
		v4.8c0,1.2-0.2,1.7-1.5,1.9c-4.7,0.9-7.5,1.2-14,1.2c-7.2,0-17.4-3.9-17.4-18.1V74c0-11.2,6.3-18.3,17.3-18.3
		c11.1,0,17.1,7.6,17.1,18.3v4C155.8,79.2,155.3,79.8,154.3,79.8z M146.2,72.8c0-5.6-3.1-8.9-7.6-8.9s-7.7,3.2-7.7,8.9v0.3h15.3
		V72.8z"/>
	<path class="st0" d="M195.7,96.8h-6.6c-0.8,0-1.4-0.7-1.4-1.5V71.8c0-6.3-0.6-8.1-6.1-8.1c-2.4,0-5.1,1-8.1,2.6v28.9
		c0,0.8-0.6,1.5-1.4,1.5h-6.6c-0.8,0-1.4-0.7-1.4-1.5V57.5c0-0.8,0.6-1.4,1.4-1.4h6.3c0.8,0,1.4,0.6,1.4,1.4V59
		c4.2-2.7,6.9-3.5,11.7-3.5c10.4,0,12.5,7,12.5,16.1v23.5C197.2,96.1,196.5,96.8,195.7,96.8z"/>
	<path class="st0" d="M226.4,96.9c-1.7,0.3-3.3,0.5-4.9,0.5c-8.1,0-11.4-1.8-11.4-11.4V63.4l-6.8-1c-0.8-0.1-1.4-0.6-1.4-1.4v-3.2
		c0-0.8,0.6-1.4,1.4-1.4h6.8v-5.9c0-0.8,0.6-1.3,1.4-1.4l6.7-1.2c0.1,0,0.2,0,0.3,0c0.6,0,1.2,0.4,1.2,1.1v7.4h6.5
		c0.8,0,1.4,0.6,1.4,1.4V62c0,0.8-0.6,1.4-1.4,1.4h-6.5V86c0,3.6,0.2,4,2.8,4h3.8c0.9,0,1.5,0.4,1.5,1.1v4.5
		C227.8,96.3,227.3,96.7,226.4,96.9z"/>
	<path class="st0" d="M242.8,96.8h-6.7c-0.8,0-1.4-0.7-1.4-1.5V43.5c0-0.8,0.6-1.4,1.4-1.4h6.7c0.8,0,1.4,0.6,1.4,1.4v51.8
		C244.1,96.1,243.5,96.8,242.8,96.8z"/>
	<path class="st0" d="M285.6,79.8h-23.5V80c0,4.2,1.7,9.1,8.6,9.1c5.3,0,10.2-0.4,13.2-0.7c0.1,0,0.1,0,0.2,0c0.7,0,1.3,0.4,1.3,1.1
		v4.8c0,1.2-0.2,1.7-1.5,1.9c-4.7,0.9-7.5,1.2-14,1.2c-7.2,0-17.4-3.9-17.4-18.1V74c0-11.2,6.3-18.3,17.3-18.3
		c11.1,0,17.1,7.6,17.1,18.3v4C287,79.2,286.6,79.8,285.6,79.8z M277.5,72.8c0-5.6-3.1-8.9-7.6-8.9s-7.7,3.2-7.7,8.9v0.3h15.3
		L277.5,72.8L277.5,72.8z"/>
	<path class="st0" d="M308.3,97.4c-2.8,0-8.9-0.4-12.9-1.4c-0.9-0.2-1.4-0.8-1.4-1.7V90c0-0.6,0.5-1.2,1.2-1.2c0.1,0,0.2,0,0.3,0
		c3.5,0.4,9.9,0.8,12.1,0.8c4.5,0,5.1-1.5,5.1-3.5c0-1.4-0.9-2.2-3.2-3.7l-9.9-6c-3.5-2.2-6-5.8-6-9.9c0-7.2,4.5-10.8,13.7-10.8
		c5.8,0,9.1,0.6,12.8,1.4c0.9,0.2,1.3,0.8,1.3,1.7V63c0,0.9-0.4,1.4-1.2,1.4c-0.1,0-0.2,0-0.3,0c-2-0.3-7.8-0.9-11.9-0.9
		c-3.5,0-5,0.8-5,3c0,1.2,1.1,1.9,2.9,3l9.4,5.8c6,3.7,6.9,7.3,6.9,10.9C322.5,92.4,317.8,97.4,308.3,97.4z"/>
	<path class="st0" d="M351,96.9c-1.7,0.3-3.3,0.5-4.9,0.5c-8.1,0-11.4-1.8-11.4-11.4V63.4l-6.8-1c-0.8-0.1-1.4-0.6-1.4-1.4v-3.2
		c0-0.8,0.6-1.4,1.4-1.4h6.8v-5.9c0-0.8,0.6-1.3,1.4-1.4l6.7-1.2c0.1,0,0.2,0,0.3,0c0.6,0,1.2,0.4,1.2,1.1v7.4h6.5
		c0.8,0,1.4,0.6,1.4,1.4V62c0,0.8-0.6,1.4-1.4,1.4h-6.5V86c0,3.6,0.2,4,2.8,4h3.8c0.9,0,1.5,0.4,1.5,1.1v4.5
		C352.3,96.3,351.9,96.7,351,96.9z"/>
	<path class="st0" d="M390.6,96.8H384c-0.8,0-1.4-0.6-1.4-1.4v-1.7c-3.7,2.4-6.7,3.6-11.3,3.6c-3.6,0-6.8-0.9-8.9-3
		c-2.7-2.7-3.6-7.1-3.6-13.1V57.7c0-0.8,0.6-1.5,1.4-1.5h6.6c0.8,0,1.4,0.7,1.4,1.5v23.5c0,3.6,0.3,5.7,1.7,6.9
		c1,0.9,2.2,1.3,4.5,1.3c2.7,0,6.1-1.8,8.1-2.9V57.7c0-0.8,0.6-1.5,1.4-1.5h6.6c0.8,0,1.4,0.7,1.4,1.5v37.7
		C392.1,96.2,391.4,96.8,390.6,96.8z"/>
	<path class="st0" d="M431.7,95.5c-4.5,1.2-9.9,1.9-14.5,1.9c-11.6,0-17.2-6.8-17.2-18.1v-5.5c0-11.2,5.6-18.1,17.2-18.1
		c1.7,0,4.2,0.1,6.9,0.5V43.5c0-0.8,0.6-1.4,1.4-1.4h6.6c0.8,0,1.4,0.6,1.4,1.4v50.1C433.6,94.7,433.3,95.1,431.7,95.5z M424.1,64
		c-2-0.3-5.2-0.5-6.9-0.5c-6.2,0-7.7,4.4-7.7,10.3v5.5c0,5.9,1.5,10.3,7.7,10.3c2.6,0,5.5-0.2,6.9-0.5V64z"/>
	<path class="st0" d="M474.7,79.8h-23.5V80c0,4.2,1.7,9.1,8.6,9.1c5.3,0,10.2-0.4,13.2-0.7c0.1,0,0.1,0,0.2,0c0.7,0,1.3,0.4,1.3,1.1
		v4.8c0,1.2-0.2,1.7-1.5,1.9c-4.7,0.9-7.5,1.2-14,1.2c-7.2,0-17.4-3.9-17.4-18.1V74c0-11.2,6.3-18.3,17.3-18.3
		C470,55.7,476,63.3,476,74v4C476.2,79.2,475.7,79.8,474.7,79.8z M466.6,72.8c0-5.6-3.1-8.9-7.6-8.9s-7.7,3.2-7.7,8.9v0.3h15.3
		L466.6,72.8L466.6,72.8z"/>
	<path class="st0" d="M516.1,96.8h-6.6c-0.8,0-1.4-0.7-1.4-1.5V71.8c0-6.3-0.6-8.1-6.1-8.1c-2.4,0-5.1,1-8.1,2.6v28.9
		c0,0.8-0.6,1.5-1.4,1.5h-6.6c-0.8,0-1.4-0.7-1.4-1.5V57.5c0-0.8,0.6-1.4,1.4-1.4h6.3c0.8,0,1.4,0.6,1.4,1.4V59
		c4.2-2.7,6.9-3.5,11.7-3.5c10.4,0,12.5,7,12.5,16.1v23.5C517.6,96.1,516.9,96.8,516.1,96.8z"/>
	<path class="st0" d="M546.8,96.9c-1.7,0.3-3.3,0.5-4.9,0.5c-8.1,0-11.4-1.8-11.4-11.4V63.4l-6.8-1c-0.8-0.1-1.4-0.6-1.4-1.4v-3.2
		c0-0.8,0.6-1.4,1.4-1.4h6.8v-5.9c0-0.8,0.6-1.3,1.4-1.4l6.7-1.2c0.1,0,0.2,0,0.3,0c0.6,0,1.2,0.4,1.2,1.1v7.4h6.5
		c0.8,0,1.4,0.6,1.4,1.4V62c0,0.8-0.6,1.4-1.4,1.4H540V86c0,3.6,0.2,4,2.8,4h3.8c0.9,0,1.5,0.4,1.5,1.1v4.5
		C548.2,96.3,547.7,96.7,546.8,96.9z"/>
</g>
</svg>
