<?xml version="1.0" encoding="utf-8"?>
<!-- Generator: Adobe Illustrator 22.0.0, SVG Export Plug-In . SVG Version: 6.00 Build 0)  -->
<svg version="1.1" id="Layer_1" xmlns="http://www.w3.org/2000/svg" xmlns:xlink="http://www.w3.org/1999/xlink" x="0px" y="0px"
	 viewBox="0 0 200 68" style="enable-background:new 0 0 200 68;" xml:space="preserve">
<style type="text/css">
	.st0{fill:#00AACC;}
	.st1{fill:none;stroke:#007F99;}
	.st2{fill:#F9F9F9;}
	.st3{fill:#FCFCFD;}
	.st4{fill:#FFFFFF;}
</style>
<path class="st0" d="M183.5,0.5H16.3c-0.6,0-1.2,0-1.8,0c-0.5,0-1,0-1.5,0c-1.1,0-2.2,0.1-3.3,0.3C8.6,1,7.5,1.4,6.5,1.9
	c-1,0.5-1.9,1.2-2.7,2C3,4.6,2.4,5.5,1.9,6.5c-0.5,1-0.9,2.1-1,3.2c-0.2,1.1-0.3,2.2-0.3,3.3c0,0.5,0,1,0,1.5v38.4c0,0.5,0,1,0,1.5
	c0,1.1,0.1,2.2,0.3,3.3C1,58.9,1.4,60,1.9,61c0.5,1,1.2,1.9,2,2.7c0.8,0.8,1.7,1.5,2.7,2c1,0.5,2.1,0.9,3.2,1
	c1.1,0.2,2.2,0.3,3.3,0.3c0.5,0,1,0,1.5,0c0.6,0,1.2,0,1.8,0h167.2c0.6,0,1.2,0,1.8,0c0.5,0,1,0,1.5,0c1.1,0,2.2-0.1,3.3-0.3
	c1.1-0.2,2.2-0.5,3.2-1c1-0.5,1.9-1.2,2.7-2c0.8-0.8,1.5-1.7,2-2.7c0.5-1,0.8-2.1,1-3.2c0.2-1.1,0.3-2.2,0.3-3.3c0-0.5,0-1,0-1.5
	c0-0.6,0-1.2,0-1.8V16.3c0-0.6,0-1.2,0-1.8c0-0.5,0-1,0-1.5c0-1.1-0.1-2.2-0.3-3.3c-0.2-1.1-0.5-2.2-1-3.2c-1-2-2.7-3.6-4.7-4.7
	c-1-0.5-2.1-0.9-3.2-1c-1.1-0.2-2.2-0.3-3.3-0.3c-0.5,0-1,0-1.5,0C184.7,0.5,184.1,0.5,183.5,0.5L183.5,0.5z"/>
<path class="st1" d="M183.5,0.5H16.3c-0.6,0-1.2,0-1.8,0c-0.5,0-1,0-1.5,0c-1.1,0-2.2,0.1-3.3,0.3C8.6,1,7.5,1.4,6.5,1.9
	c-1,0.5-1.9,1.2-2.7,2C3,4.6,2.4,5.5,1.9,6.5c-0.5,1-0.9,2.1-1,3.2c-0.2,1.1-0.3,2.2-0.3,3.3c0,0.5,0,1,0,1.5v38.4c0,0.5,0,1,0,1.5
	c0,1.1,0.1,2.2,0.3,3.3C1,58.9,1.4,60,1.9,61c0.5,1,1.2,1.9,2,2.7c0.8,0.8,1.7,1.5,2.7,2c1,0.5,2.1,0.9,3.2,1
	c1.1,0.2,2.2,0.3,3.3,0.3c0.5,0,1,0,1.5,0c0.6,0,1.2,0,1.8,0h167.2c0.6,0,1.2,0,1.8,0c0.5,0,1,0,1.5,0c1.1,0,2.2-0.1,3.3-0.3
	c1.1-0.2,2.2-0.5,3.2-1c1-0.5,1.9-1.2,2.7-2c0.8-0.8,1.5-1.7,2-2.7c0.5-1,0.8-2.1,1-3.2c0.2-1.1,0.3-2.2,0.3-3.3c0-0.5,0-1,0-1.5
	c0-0.6,0-1.2,0-1.8V16.3c0-0.6,0-1.2,0-1.8c0-0.5,0-1,0-1.5c0-1.1-0.1-2.2-0.3-3.3c-0.2-1.1-0.5-2.2-1-3.2c-1-2-2.7-3.6-4.7-4.7
	c-1-0.5-2.1-0.9-3.2-1c-1.1-0.2-2.2-0.3-3.3-0.3c-0.5,0-1,0-1.5,0C184.7,0.5,184.1,0.5,183.5,0.5L183.5,0.5z"/>
<path class="st2" d="M150.4,37.7c-1.3,0-2.2,0.3-2.8,1.1c-0.6,0.7-0.9,1.9-0.9,3.4v0.4c0,1.8,0.3,3.1,0.9,3.8
	c0.6,0.8,1.5,1.2,2.9,1.2c1.1,0,2-0.5,2.6-1.4c0.6-0.9,0.9-2.1,0.9-3.7c0-1.6-0.3-2.8-0.9-3.7C152.4,38.1,151.5,37.7,150.4,37.7z
	 M150.7,49.2c-0.8,0-1.6-0.2-2.3-0.5c-0.7-0.3-1.3-0.8-1.7-1.4h-0.2c0.1,0.7,0.2,1.4,0.2,2.1v5.3h-1.9V36.3h1.6l0.3,1.7h0.1
	c0.5-0.7,1.1-1.2,1.7-1.5c0.7-0.3,1.4-0.5,2.3-0.5c1.7,0,3,0.6,3.9,1.7c0.9,1.2,1.4,2.8,1.4,4.9s-0.5,3.7-1.4,4.9
	C153.7,48.7,152.3,49.2,150.7,49.2z"/>
<rect x="158.5" y="30.9" class="st2" width="1.9" height="18.1"/>
<path class="st2" d="M167.2,47.6c1.2,0,2.1-0.3,2.8-1c0.7-0.7,1-1.6,1-2.8v-1.2l-1.9,0.1c-1.5,0-2.6,0.3-3.3,0.7c-0.7,0.4-1,1.1-1,2
	c0,0.7,0.2,1.2,0.6,1.6C165.9,47.5,166.4,47.6,167.2,47.6z M171.6,49l-0.4-1.8h-0.1c-0.6,0.8-1.3,1.4-1.9,1.6
	c-0.6,0.3-1.4,0.4-2.4,0.4c-1.3,0-2.2-0.3-3-1c-0.7-0.7-1.1-1.6-1.1-2.8c0-2.6,2.1-3.9,6.2-4.1l2.2-0.1v-0.8c0-1-0.2-1.7-0.7-2.2
	c-0.4-0.5-1.1-0.7-2.1-0.7c-1,0-2.3,0.3-3.6,1l-0.6-1.5c0.6-0.3,1.3-0.6,2.1-0.8c0.7-0.2,1.5-0.3,2.2-0.3c1.5,0,2.6,0.3,3.4,1
	c0.7,0.7,1.1,1.7,1.1,3.3V49H171.6z"/>
<path class="st2" d="M174.1,36.3h2.1l2.8,7.3c0.6,1.7,1,2.9,1.1,3.6h0.1c0.1-0.4,0.3-1.1,0.6-2c0.3-1,1.4-3.9,3.2-8.8h2.1l-5.5,14.5
	c-0.5,1.4-1.2,2.4-1.9,3.1s-1.6,0.9-2.7,0.9c-0.6,0-1.2-0.1-1.7-0.2V53c0.4,0.1,0.9,0.2,1.4,0.2c1.3,0,2.3-0.7,2.8-2.2l0.7-1.8
	L174.1,36.3z"/>
<path class="st2" d="M113.8,44.2c0.6-0.6,0.7-1.5,0.7-1.9c0-1.9-1.2-4.9-3.4-4.9c-0.7,0-1.4,0.3-1.9,0.9c-0.5,0.5-0.6,1.3-0.6,2
	c0,1.8,1,4.8,3.3,4.8C112.6,45,113.4,44.6,113.8,44.2z M113,49.3c-0.2,0-0.3,0-0.6,0c-0.2,0-1.7,0-2.8,0.4c-0.6,0.2-2.3,0.9-2.3,2.7
	s1.9,3.3,4.7,3.3c2.6,0,3.9-1.2,3.9-2.9C115.9,51.4,115,50.7,113,49.3z M114.9,37.4c0.6,0.5,1.9,1.6,1.9,3.6c0,2-1.1,2.9-2.2,3.8
	c-0.3,0.3-0.7,0.7-0.7,1.3c0,0.6,0.4,0.9,0.7,1.2l1,0.7c1.2,1,2.2,1.9,2.2,3.8c0,2.5-2.4,5-7,5c-3.9,0-5.7-1.9-5.7-3.8
	c0-1,0.5-2.3,2.1-3.3c1.7-1,3.9-1.2,5.1-1.2c-0.4-0.5-0.8-1-0.8-1.8c0-0.5,0.1-0.7,0.3-1c-0.3,0-0.6,0-0.9,0c-2.8,0-4.4-2.1-4.4-4.2
	c0-1.2,0.5-2.6,1.7-3.6c1.5-1.2,3.3-1.5,4.8-1.5h5.5l-1.7,1H114.9z"/>
<path class="st2" d="M101.5,46.7c0.7-0.9,0.8-1.9,0.8-2.9c0-2.4-1.1-6.8-4.4-6.8c-0.9,0-1.7,0.3-2.4,0.9c-1,0.9-1.2,2.1-1.2,3.3
	c0,2.6,1.3,7,4.5,7C99.8,48,100.8,47.5,101.5,46.7z M98.1,48.8c-4.2,0-6.5-3.3-6.5-6.3c0-3.5,2.9-6.5,6.9-6.5c3.9,0,6.3,3.1,6.3,6.3
	C104.9,45.5,102.5,48.8,98.1,48.8z"/>
<path class="st2" d="M87,46.7c0.7-0.9,0.8-1.9,0.8-2.9c0-2.4-1.1-6.8-4.4-6.8c-0.9,0-1.7,0.3-2.4,0.9c-1,0.9-1.2,2.1-1.2,3.3
	c0,2.6,1.3,7,4.5,7C85.4,48,86.4,47.5,87,46.7z M83.7,48.8c-4.2,0-6.5-3.3-6.5-6.3c0-3.5,2.9-6.5,6.9-6.5c3.9,0,6.3,3.1,6.3,6.3
	C90.5,45.5,88,48.8,83.7,48.8z"/>
<path class="st2" d="M75.2,48.4l-3.8,0.9c-1.5,0.2-2.9,0.5-4.4,0.5c-7.4,0-10.2-5.5-10.2-9.7c0-5.2,4-10,10.8-10
	c1.4,0,2.8,0.2,4.1,0.6c2,0.6,2.9,1.2,3.5,1.7l-2.2,2.1L72,34.6l0.7-1.1C71.8,32.7,70.1,31,67,31c-4.2,0-7.4,3.2-7.4,7.9
	c0,5,3.6,9.8,9.5,9.8c1.7,0,2.6-0.3,3.4-0.7v-4.3l-4,0.2l2.1-1.2h5.7l-0.7,0.7c-0.2,0.2-0.2,0.2-0.3,0.4c0,0.2,0,1,0,1.3V48.4z"/>
<path class="st2" d="M123.4,47.6c-0.9-0.1-1.1-0.2-1.1-1.3v-0.3V31.2c0,0,0-0.1,0-0.2c0.1-0.9,0.4-1.1,1.2-1.6h-3.8l-2,1h2.1v15.6
	V47c0,0.5-0.1,0.6-0.7,1.4h4.7l1-0.6C124.3,47.7,123.8,47.7,123.4,47.6z"/>
<path class="st2" d="M131.8,40c0.5-0.2,0.8-0.3,0.8-0.7c0-1-1.2-2.3-2.6-2.3c-1.1,0-3.1,0.8-3.1,3.7c0,0.5,0,0.9,0.1,1.4L131.8,40z
	 M134.3,47.9c-0.3,0.2-0.6,0.3-0.9,0.5c-0.9,0.4-1.8,0.5-2.6,0.5c-0.9,0-2.2,0-3.5-1c-1.9-1.3-2.7-3.6-2.7-5.6
	c0-4.1,3.4-6.2,6.1-6.2c1,0,1.9,0.2,2.7,0.7c1.3,0.9,1.7,2,1.9,2.6L129,42l-2.1,0.2c0.7,3.4,2.9,5.3,5.5,5.3c1.4,0,2.3-0.5,3.3-0.9
	L134.3,47.9z"/>
<polygon class="st2" points="136.8,36.3 136.8,38 136.6,38 136.6,36.3 136.1,36.3 136.1,36.1 137.4,36.1 137.4,36.3 "/>
<polygon class="st2" points="139.2,38.1 139.2,36.3 138.7,38.1 138.5,38.1 138,36.3 138,38.1 137.8,38.1 137.8,36.1 138.1,36.1 
	138.7,37.7 139.2,36.1 139.5,36.1 139.5,38.1 "/>
<path class="st3" d="M60.1,22.5c-0.5-1.4-0.7-2.2-0.7-2.3h-0.1c0,0.1-0.2,0.9-0.7,2.3H60.1z M62,24.9h-1.3c0-0.2-0.1-0.7-0.4-1.5
	h-1.9c-0.3,0.9-0.4,1.4-0.4,1.5h-1.2c0-0.1,0.3-1,1-2.7c0.7-1.7,1-2.6,1-2.7h1.6c0,0.2,0.3,1,0.9,2.7C61.8,23.8,62,24.7,62,24.9z"/>
<path class="st3" d="M67.4,24.9h-1c0-0.1-0.4-0.7-1.2-1.8c-0.8-1.2-1.2-1.9-1.4-2.4h-0.1c0.1,0.6,0.1,1.2,0.1,1.7
	c0,0.7,0,1.5,0.1,2.5h-1C63,24,63,23,63,22c0-1,0-1.9-0.1-2.6h1.2c0,0.2,0.3,0.7,1,1.7c0.7,1.1,1.2,1.8,1.2,2.2h0.1
	c-0.1-0.6-0.1-1.2-0.1-1.7c0-0.7,0-1.5-0.1-2.3h1c0,0.7-0.1,1.5-0.1,2.6C67.3,23.1,67.4,24,67.4,24.9z"/>
<path class="st3" d="M72.3,22.2c0-0.5-0.2-1-0.5-1.4c-0.3-0.3-0.8-0.5-1.4-0.5c-0.1,0-0.3,0-0.5,0c0,0.5,0,1.1,0,1.7
	c0,0.7,0,1.3,0,2c0.2,0,0.3,0,0.5,0c0.6,0,1-0.2,1.3-0.5C72.2,23.1,72.3,22.7,72.3,22.2z M73.5,22c0,0.8-0.3,1.5-0.8,2.1
	c-0.5,0.6-1.2,0.9-2.1,0.9c-0.4,0-1,0-1.7,0c0-0.9,0-1.8,0-2.8c0-1,0-1.9,0-2.6h0.7c0.1,0,0.3,0,0.5,0s0.4,0,0.5,0
	c1,0,1.7,0.2,2.2,0.7C73.2,20.7,73.5,21.3,73.5,22z"/>
<path class="st3" d="M77.4,21c0-0.5-0.3-0.8-1.1-0.8c-0.3,0-0.5,0-0.7,0.1c0,0.4,0.1,1,0.1,1.7c0.2,0,0.3,0,0.4,0
	C77,22,77.4,21.6,77.4,21z M79,24.9h-1.2c-0.3-1-0.6-1.6-0.7-1.8c-0.2-0.2-0.4-0.3-0.8-0.3c-0.2,0-0.3,0-0.5,0c0,0.7,0,1.4,0,2.2
	h-1.2c0-0.9,0-1.8,0-2.8c0-1,0-1.9,0-2.6h0.7c0.1,0,0.3,0,0.5,0c0.3,0,0.5,0,0.7,0c1.3,0,1.9,0.4,1.9,1.3c0,0.7-0.3,1.2-1.1,1.4v0.1
	c0.3,0.1,0.5,0.3,0.7,0.7C78.4,23.2,78.6,23.9,79,24.9z"/>
<path class="st3" d="M83.8,22.2c0-0.6-0.2-1-0.4-1.4c-0.3-0.4-0.7-0.6-1.1-0.6c-0.4,0-0.7,0.2-1,0.5c-0.3,0.3-0.4,0.8-0.4,1.4
	s0.2,1,0.5,1.4c0.3,0.3,0.7,0.5,1.1,0.5c0.4,0,0.7-0.2,1-0.5C83.7,23.2,83.8,22.7,83.8,22.2z M84.9,22.1c0,0.9-0.3,1.5-0.8,2.1
	c-0.5,0.5-1.2,0.9-1.9,0.9c-0.7,0-1.4-0.3-1.8-0.8c-0.5-0.5-0.7-1.2-0.7-2c0-0.9,0.3-1.5,0.8-2.1c0.5-0.5,1.2-0.9,1.9-0.9
	c0.7,0,1.4,0.3,1.8,0.8C84.7,20.6,84.9,21.3,84.9,22.1z"/>
<path class="st3" d="M87.3,24.9h-1.2c0-0.9,0-1.8,0-2.8c0-1,0-1.9,0-2.6h1.2c0,0.7,0,1.5,0,2.6C87.2,23.1,87.3,24,87.3,24.9z"/>
<path class="st3" d="M92.2,22.2c0-0.5-0.2-1-0.5-1.4c-0.3-0.3-0.8-0.5-1.4-0.5c-0.1,0-0.3,0-0.5,0c0,0.5,0,1.1,0,1.7
	c0,0.7,0,1.3,0,2c0.2,0,0.3,0,0.5,0c0.6,0,1-0.2,1.3-0.5C92.1,23.1,92.2,22.7,92.2,22.2z M93.3,22c0,0.8-0.3,1.5-0.8,2.1
	c-0.5,0.6-1.2,0.9-2.1,0.9c-0.4,0-1,0-1.7,0c0-0.9,0-1.8,0-2.8c0-1,0-1.9,0-2.6h0.7c0.1,0,0.3,0,0.5,0c0.2,0,0.4,0,0.5,0
	c1,0,1.7,0.2,2.2,0.7C93.1,20.7,93.3,21.3,93.3,22z"/>
<path class="st3" d="M99.4,22.5c-0.5-1.4-0.7-2.2-0.7-2.3h-0.1c0,0.1-0.2,0.9-0.7,2.3H99.4z M101.3,24.9H100c0-0.2-0.1-0.7-0.4-1.5
	h-1.9c-0.3,0.9-0.4,1.4-0.4,1.5H96c0-0.1,0.3-1,1-2.7c0.7-1.7,1-2.6,1-2.7h1.6c0,0.2,0.3,1,0.9,2.7C101,23.8,101.3,24.7,101.3,24.9z
	"/>
<path class="st3" d="M105.1,21.1c0-0.6-0.4-0.9-1.2-0.9c-0.2,0-0.4,0-0.6,0.1c0,0.5,0,1.1,0,1.8c0.1,0,0.2,0,0.2,0
	C104.6,22.1,105.1,21.7,105.1,21.1z M106.1,20.9c0,0.7-0.2,1.2-0.7,1.5c-0.5,0.3-1.1,0.5-1.8,0.5c-0.1,0-0.2,0-0.3,0
	c0,0.5,0,1.2,0,2.1h-1.2c0-0.8,0-1.7,0-2.8c0-1,0-1.9,0-2.6h0.7c0.1,0,0.3,0,0.6,0c0.3,0,0.5,0,0.8,0c0.5,0,1,0.1,1.3,0.3
	C106,20,106.1,20.4,106.1,20.9z"/>
<path class="st3" d="M110.1,21.1c0-0.6-0.4-0.9-1.2-0.9c-0.2,0-0.4,0-0.6,0.1c0,0.5,0,1.1,0,1.8c0.1,0,0.2,0,0.2,0
	C109.6,22.1,110.1,21.7,110.1,21.1z M111.1,20.9c0,0.7-0.2,1.2-0.7,1.5c-0.5,0.3-1.1,0.5-1.8,0.5c-0.1,0-0.2,0-0.3,0
	c0,0.5,0,1.2,0,2.1h-1.2c0-0.8,0-1.7,0-2.8c0-1,0-1.9,0-2.6h0.7c0.1,0,0.3,0,0.6,0c0.3,0,0.5,0,0.8,0c0.5,0,1,0.1,1.3,0.3
	C111,20,111.1,20.4,111.1,20.9z"/>
<path class="st3" d="M118.1,22.2c0-0.6-0.2-1-0.4-1.4c-0.3-0.3-0.7-0.5-1.1-0.5c-0.4,0-0.7,0.2-1,0.5c-0.3,0.3-0.4,0.8-0.4,1.4
	s0.2,1,0.5,1.4c0.3,0.3,0.7,0.5,1.1,0.5c0.4,0,0.7-0.2,1-0.5C118,23.2,118.1,22.7,118.1,22.2z M119.3,22.1c0,0.9-0.3,1.5-0.8,2.1
	c-0.5,0.5-1.2,0.9-1.9,0.9c-0.7,0-1.4-0.3-1.8-0.8c-0.5-0.5-0.7-1.2-0.7-2c0-0.9,0.3-1.5,0.8-2.1c0.5-0.5,1.2-0.9,1.9-0.9
	c0.7,0,1.4,0.3,1.8,0.8C119.1,20.6,119.3,21.3,119.3,22.1z"/>
<path class="st3" d="M125,24.9h-1c0-0.1-0.4-0.7-1.2-1.8c-0.8-1.2-1.2-1.9-1.4-2.4h0c0.1,0.6,0.1,1.2,0.1,1.7c0,0.7,0,1.5,0.1,2.5
	h-1c0-0.9,0.1-1.8,0.1-2.8c0-1,0-1.9-0.1-2.6h1.2c0,0.2,0.3,0.7,1,1.7c0.7,1.1,1.2,1.8,1.2,2.2h0.1c-0.1-0.6-0.1-1.2-0.1-1.7
	c0-0.7,0-1.5-0.1-2.3h1c0,0.7-0.1,1.5-0.1,2.6C124.9,23.1,124.9,24,125,24.9z"/>
<path class="st4" d="M47.7,29.4c0-1.3-1.1-2.4-2.4-2.4C44,27,43,28.1,43,29.4v9.9c0,1.3,1.1,2.4,2.4,2.4c1.3,0,2.4-1.1,2.4-2.4V29.4
	z M21,27.5v15.3c0,1.4,1.1,2.5,2.5,2.5h1.7v5.2c0,1.3,1.1,2.4,2.4,2.4c1.3,0,2.4-1.1,2.4-2.4v-5.2h3.2v5.2c0,1.3,1.1,2.4,2.4,2.4
	c1.3,0,2.4-1.1,2.4-2.4v-5.2h1.7c1.4,0,2.5-1.1,2.5-2.5V27.4L21,27.5z M36.3,22.8c-0.5,0-0.9-0.4-0.9-0.9c0-0.5,0.4-0.9,0.9-0.9
	c0.5,0,0.9,0.4,0.9,0.9C37.2,22.4,36.8,22.8,36.3,22.8 M26.7,22.8c-0.5,0-0.9-0.4-0.9-0.9c0-0.5,0.4-0.9,0.9-0.9
	c0.5,0,0.9,0.4,0.9,0.9C27.6,22.4,27.2,22.8,26.7,22.8 M36.7,18.1l1.6-3c0.1-0.2,0-0.4-0.1-0.4c-0.2-0.1-0.4,0-0.4,0.1l-1.7,3
	c-1.4-0.6-3-1-4.6-1c-1.6,0-3.2,0.3-4.6,1l-1.7-3c-0.1-0.2-0.3-0.2-0.4-0.1c-0.2,0.1-0.2,0.3-0.1,0.4l1.6,3
	c-3.2,1.7-5.4,4.8-5.4,8.5h21.2C42.1,23,39.9,19.8,36.7,18.1 M17.7,27c-1.3,0-2.4,1.1-2.4,2.4v9.9c0,1.3,1.1,2.4,2.4,2.4
	c1.3,0,2.4-1.1,2.4-2.4v-9.9C20,28.1,19,27,17.7,27"/>
</svg>
