<?xml version="1.0" encoding="utf-8"?>
<!-- Generator: Adobe Illustrator 22.0.0, SVG Export Plug-In . SVG Version: 6.00 Build 0)  -->
<svg version="1.1" id="Layer_1" xmlns="http://www.w3.org/2000/svg" xmlns:xlink="http://www.w3.org/1999/xlink" x="0px" y="0px"
	 viewBox="0 0 200 68" style="enable-background:new 0 0 200 68;" xml:space="preserve">
<style type="text/css">
	.st0{fill:#00AACC;}
	.st1{fill:none;stroke:#007F99;}
	.st2{fill:#FFFFFF;}
</style>
<path class="st0" d="M183.5,0.5H16.3c-0.6,0-1.2,0-1.8,0c-0.5,0-1,0-1.5,0c-1.1,0-2.2,0.1-3.3,0.3C8.6,1,7.5,1.4,6.5,1.9
	c-1,0.5-1.9,1.2-2.7,2C3,4.6,2.4,5.5,1.9,6.5c-0.5,1-0.9,2.1-1,3.2c-0.2,1.1-0.3,2.2-0.3,3.3c0,0.5,0,1,0,1.5v38.4c0,0.5,0,1,0,1.5
	c0,1.1,0.1,2.2,0.3,3.3C1,58.9,1.4,60,1.9,61c0.5,1,1.2,1.9,2,2.7c0.8,0.8,1.7,1.5,2.7,2c1,0.5,2.1,0.9,3.2,1
	c1.1,0.2,2.2,0.3,3.3,0.3c0.5,0,1,0,1.5,0c0.6,0,1.2,0,1.8,0h167.2c0.6,0,1.2,0,1.8,0c0.5,0,1,0,1.5,0c1.1,0,2.2-0.1,3.3-0.3
	c1.1-0.2,2.2-0.5,3.2-1c1-0.5,1.9-1.2,2.7-2c0.8-0.8,1.5-1.7,2-2.7c0.5-1,0.8-2.1,1-3.2c0.2-1.1,0.3-2.2,0.3-3.3c0-0.5,0-1,0-1.5
	c0-0.6,0-1.2,0-1.8V16.3c0-0.6,0-1.2,0-1.8c0-0.5,0-1,0-1.5c0-1.1-0.1-2.2-0.3-3.3c-0.2-1.1-0.5-2.2-1-3.2c-1-2-2.7-3.6-4.7-4.7
	c-1-0.5-2.1-0.9-3.2-1c-1.1-0.2-2.2-0.3-3.3-0.3c-0.5,0-1,0-1.5,0C184.7,0.5,184.1,0.5,183.5,0.5L183.5,0.5z"/>
<path class="st1" d="M183.5,0.5H16.3c-0.6,0-1.2,0-1.8,0c-0.5,0-1,0-1.5,0c-1.1,0-2.2,0.1-3.3,0.3C8.6,1,7.5,1.4,6.5,1.9
	c-1,0.5-1.9,1.2-2.7,2C3,4.6,2.4,5.5,1.9,6.5c-0.5,1-0.9,2.1-1,3.2c-0.2,1.1-0.3,2.2-0.3,3.3c0,0.5,0,1,0,1.5v38.4c0,0.5,0,1,0,1.5
	c0,1.1,0.1,2.2,0.3,3.3C1,58.9,1.4,60,1.9,61c0.5,1,1.2,1.9,2,2.7c0.8,0.8,1.7,1.5,2.7,2c1,0.5,2.1,0.9,3.2,1
	c1.1,0.2,2.2,0.3,3.3,0.3c0.5,0,1,0,1.5,0c0.6,0,1.2,0,1.8,0h167.2c0.6,0,1.2,0,1.8,0c0.5,0,1,0,1.5,0c1.1,0,2.2-0.1,3.3-0.3
	c1.1-0.2,2.2-0.5,3.2-1c1-0.5,1.9-1.2,2.7-2c0.8-0.8,1.5-1.7,2-2.7c0.5-1,0.8-2.1,1-3.2c0.2-1.1,0.3-2.2,0.3-3.3c0-0.5,0-1,0-1.5
	c0-0.6,0-1.2,0-1.8V16.3c0-0.6,0-1.2,0-1.8c0-0.5,0-1,0-1.5c0-1.1-0.1-2.2-0.3-3.3c-0.2-1.1-0.5-2.2-1-3.2c-1-2-2.7-3.6-4.7-4.7
	c-1-0.5-2.1-0.9-3.2-1c-1.1-0.2-2.2-0.3-3.3-0.3c-0.5,0-1,0-1.5,0C184.7,0.5,184.1,0.5,183.5,0.5L183.5,0.5z"/>
<path class="st2" d="M41.7,34.2c0-2.8,1.5-5.4,3.9-6.9c-1.5-2.2-4-3.5-6.6-3.6c-2.8-0.3-5.5,1.7-6.9,1.7c-1.4,0-3.6-1.6-6-1.6
	c-3.1,0.1-5.9,1.8-7.4,4.5c-3.2,5.6-0.8,13.7,2.3,18.2c1.5,2.2,3.3,4.7,5.7,4.6c2.3-0.1,3.2-1.5,5.9-1.5c2.8,0,3.6,1.5,6,1.4
	c2.5,0,4-2.2,5.5-4.4c1.1-1.6,2-3.3,2.5-5.1C43.6,40.3,41.7,37.4,41.7,34.2z"/>
<path class="st2" d="M37.1,20.8c1.3-1.6,2-3.7,1.9-5.8c-2.1,0.2-4,1.2-5.3,2.8c-1.3,1.5-2,3.5-1.9,5.6
	C33.8,23.4,35.8,22.4,37.1,20.8z"/>
<path class="st2" d="M63.7,43H70L66.9,34h-0.1L63.7,43z M70.8,45.6h-7.9L61,51.2h-3.3l7.5-20.6h3.5l7.5,20.6h-3.4L70.8,45.6z"/>
<path class="st2" d="M89,43.7c0-3-1.6-5-4-5c-2.4,0-3.9,2-3.9,5c0,3,1.6,5.1,3.9,5.1C87.4,48.7,89,46.7,89,43.7z M92.2,43.7
	c0,4.7-2.5,7.7-6.3,7.7c-2,0.1-3.8-0.9-4.7-2.6h-0.1v7.5H78v-20h3v2.5H81c1-1.7,2.8-2.7,4.8-2.7C89.6,36,92.2,39,92.2,43.7z"/>
<path class="st2" d="M105.5,43.7c0-3-1.6-5-4-5c-2.4,0-3.9,2-3.9,5c0,3,1.6,5.1,3.9,5.1C104,48.7,105.5,46.7,105.5,43.7L105.5,43.7z
	 M108.7,43.7c0,4.7-2.5,7.7-6.3,7.7c-2,0.1-3.8-0.9-4.7-2.6l-0.1,0v7.5h-3.1v-20h3v2.5h0.1c1-1.7,2.8-2.7,4.8-2.7
	C106.2,36,108.7,39,108.7,43.7z"/>
<path class="st2" d="M119.7,45.4c0.2,2,2.2,3.4,4.9,3.4c2.6,0,4.5-1.3,4.5-3.2c0-1.6-1.1-2.6-3.8-3.2l-2.7-0.6
	c-3.8-0.9-5.5-2.7-5.5-5.6c0-3.6,3.1-6,7.5-6c4.4,0,7.3,2.4,7.5,6h-3.1c-0.2-2.1-1.9-3.3-4.4-3.3c-2.5,0-4.2,1.3-4.2,3.1
	c0,1.5,1.1,2.3,3.7,3l2.3,0.6c4.2,1,6,2.7,6,5.7c0,3.9-3.1,6.3-8,6.3c-4.6,0-7.7-2.4-7.9-6.1L119.7,45.4z"/>
<path class="st2" d="M139,32.6v3.6h2.9v2.4H139v8.3c0,1.3,0.6,1.9,1.8,1.9c0.3,0,0.7,0,1-0.1v2.4c-0.6,0.1-1.1,0.2-1.7,0.1
	c-3,0-4.2-1.1-4.2-4.1v-8.6h-2.2v-2.4h2.2v-3.6H139z"/>
<path class="st2" d="M154.6,43.7c0-3.2-1.5-5.2-4-5.2c-2.5,0-4,1.9-4,5.2c0,3.3,1.5,5.2,4,5.2C153.2,48.8,154.6,46.9,154.6,43.7
	L154.6,43.7z M143.5,43.7c0-4.7,2.8-7.7,7.1-7.7c4.4,0,7.1,3,7.1,7.7c0,4.7-2.8,7.7-7.1,7.7C146.3,51.4,143.5,48.4,143.5,43.7z"/>
<path class="st2" d="M160.3,36.1h2.9v2.6h0.1c0.4-1.6,1.9-2.8,3.6-2.7c0.4,0,0.7,0,1.1,0.1l0,2.9c-0.4-0.1-0.9-0.2-1.4-0.2
	c-0.9,0-1.8,0.3-2.4,1c-0.6,0.7-0.9,1.6-0.8,2.5v8.9h-3.1L160.3,36.1z"/>
<path class="st2" d="M171.8,42.3h7.5c0.1-1-0.3-2-1-2.7c-0.7-0.7-1.7-1.1-2.7-1.1c-1,0-2,0.4-2.7,1.1
	C172.2,40.3,171.8,41.3,171.8,42.3L171.8,42.3z M182.3,46.8c-0.4,2.7-3.1,4.6-6.5,4.6c-4.4,0-7.1-2.9-7.1-7.6c0-4.7,2.7-7.8,7-7.8
	c4.2,0,6.8,2.9,6.8,7.4v1.1h-10.6v0.2c-0.1,1.1,0.3,2.2,1.1,3c0.8,0.8,1.9,1.3,3,1.2c1.5,0.1,2.9-0.7,3.5-2.1L182.3,46.8z"/>
<path class="st2" d="M61.3,23.5h1.9c0.9,0.1,1.8-0.3,2.5-1c0.6-0.7,0.9-1.6,0.8-2.6c0.1-0.9-0.2-1.9-0.8-2.5s-1.5-1.1-2.5-1h-1.9
	V23.5z M63.4,15c1.3-0.1,2.6,0.4,3.5,1.4s1.3,2.3,1.2,3.6c0,3.2-1.7,5-4.7,5h-3.6V15H63.4z"/>
<path class="st2" d="M75.3,21.2c0-1.6-0.7-2.6-2-2.6c-1.3,0-2,0.9-2,2.6c0,1.6,0.7,2.6,2,2.6C74.6,23.8,75.3,22.8,75.3,21.2
	L75.3,21.2z M69.8,21.2c-0.1-1.3,0.5-2.6,1.7-3.3c1.1-0.7,2.6-0.7,3.7,0c1.1,0.7,1.8,2,1.7,3.3c0.1,1.3-0.5,2.6-1.7,3.4
	c-1.1,0.7-2.6,0.7-3.7,0C70.3,23.8,69.6,22.5,69.8,21.2L69.8,21.2z"/>
<polygon class="st2" points="86.2,24.9 84.7,24.9 83.1,19.4 83,19.4 81.5,24.9 80,24.9 77.9,17.4 79.4,17.4 80.7,23.2 80.8,23.2 
	82.4,17.4 83.8,17.4 85.3,23.2 85.4,23.2 86.8,17.4 88.3,17.4 "/>
<path class="st2" d="M90,17.4h1.4v1.2h0.1c0.4-0.9,1.3-1.4,2.2-1.3c0.7-0.1,1.5,0.2,2,0.8c0.5,0.5,0.7,1.3,0.6,2l0,4.8h-1.5v-4.5
	c0-1.2-0.5-1.8-1.6-1.8c-0.5,0-1,0.2-1.3,0.5c-0.3,0.4-0.5,0.9-0.5,1.4l0,4.4H90L90,17.4z"/>
<rect x="98.7" y="14.5" class="st2" width="1.5" height="10.4"/>
<path class="st2" d="M107.8,21.2c0-1.6-0.7-2.6-2-2.6c-1.3,0-2,0.9-2,2.6c0,1.6,0.7,2.6,2,2.6C107,23.8,107.8,22.8,107.8,21.2
	L107.8,21.2z M102.2,21.2c-0.1-1.3,0.5-2.6,1.7-3.3c1.1-0.7,2.6-0.7,3.7,0c1.1,0.7,1.8,2,1.7,3.3c0.1,1.3-0.5,2.6-1.7,3.4
	c-1.1,0.7-2.6,0.7-3.7,0C102.7,23.8,102.1,22.5,102.2,21.2z"/>
<path class="st2" d="M115.7,22.2v-0.6l-1.8,0.1c-1,0.1-1.5,0.4-1.5,1.1c0,0.7,0.6,1.1,1.4,1.1c0.5,0,1-0.1,1.3-0.4
	C115.4,23.1,115.6,22.6,115.7,22.2L115.7,22.2z M110.8,22.8c0-1.3,1-2.1,2.8-2.2l2-0.1v-0.6c0-0.8-0.5-1.2-1.5-1.2
	c-0.8,0-1.4,0.3-1.6,0.8h-1.4c0.2-1.3,1.4-2.1,3.1-2.1c1.9,0,2.9,0.9,2.9,2.5v5.1h-1.4v-1.1h-0.1c-0.5,0.8-1.3,1.2-2.2,1.2
	c-0.6,0.1-1.3-0.1-1.7-0.6C111.1,24.1,110.8,23.4,110.8,22.8L110.8,22.8z"/>
<path class="st2" d="M120.6,21.2c0,1.6,0.7,2.5,2,2.5c1.2,0,2-1,2-2.5c0-1.6-0.8-2.5-2-2.5C121.3,18.6,120.6,19.6,120.6,21.2
	L120.6,21.2z M119.1,21.2c0-2.4,1.2-3.9,3.1-3.9c1,0,1.8,0.5,2.3,1.3h0.1v-4.1h1.5v10.4h-1.4v-1.2h-0.1c-0.5,0.8-1.4,1.3-2.3,1.3
	C120.3,25,119.1,23.6,119.1,21.2z"/>
<path class="st2" d="M132.6,17.4h1.5v7.5h-1.5V17.4z M132.3,15.2c0-0.4,0.2-0.8,0.5-0.9c0.4-0.2,0.8-0.1,1.1,0.2
	c0.3,0.3,0.4,0.7,0.2,1c-0.1,0.4-0.5,0.6-0.9,0.6c-0.2,0-0.5-0.1-0.7-0.2C132.4,15.7,132.3,15.5,132.3,15.2z"/>
<path class="st2" d="M136.4,17.4h1.4v1.2h0.1c0.4-0.9,1.3-1.4,2.2-1.3c0.7-0.1,1.5,0.2,2,0.8c0.5,0.5,0.7,1.3,0.6,2v4.8h-1.5v-4.5
	c0-1.2-0.5-1.8-1.6-1.8c-0.5,0-1,0.2-1.3,0.5c-0.3,0.4-0.5,0.9-0.5,1.4v4.4h-1.5L136.4,17.4z"/>
<path class="st2" d="M150.3,21.2c0,1.6,0.7,2.5,2,2.5c1.2,0,2-1,2-2.5c0-1.6-0.8-2.5-2-2.5C151,18.6,150.3,19.6,150.3,21.2
	L150.3,21.2z M148.7,21.2c0-2.4,1.2-3.9,3.1-3.9c1,0,1.8,0.5,2.3,1.3h0.1v-4.1h1.5v10.4h-1.4v-1.2h-0.1c-0.5,0.8-1.4,1.3-2.3,1.3
	C149.9,25,148.7,23.6,148.7,21.2z"/>
<path class="st2" d="M159.3,20.5h3.8c0-0.5-0.1-1-0.5-1.4c-0.4-0.4-0.8-0.6-1.4-0.6c-0.5,0-1,0.2-1.4,0.6
	C159.5,19.5,159.3,20,159.3,20.5L159.3,20.5z M164.5,22.9c-0.4,1.4-1.8,2.3-3.2,2.2c-1,0-2-0.4-2.6-1.1c-0.7-0.7-1-1.7-0.8-2.7
	c-0.1-1,0.2-2,0.8-2.7s1.6-1.2,2.6-1.2c2.1,0,3.3,1.4,3.3,3.8v0.5h-5.3v0.1c0,0.6,0.1,1.1,0.5,1.5c0.4,0.4,0.9,0.6,1.5,0.6
	c0.7,0.1,1.4-0.3,1.8-0.9L164.5,22.9z"/>
</svg>
